<svg xmlns="http://www.w3.org/2000/svg" viewBox="0 0 1000 1000"><defs><style>.cls-1{fill:#151047;}.cls-2{fill:#fff;}</style></defs><g id="Layer_2" data-name="Layer 2"><g id="Layer_1-2" data-name="Layer 1"><rect class="cls-1" width="1000" height="1000"/><text/><path class="cls-2" d="M344.88,769.15V732.89c-16.12,13.7-48.36,43.52-116.85,43.52-80.59,0-182.12-57.22-182.12-204.69,0-104,57.21-210.33,191.79-210.33,61.24,0,88.64,18.54,107.18,30.63V223.59H486.7V769.15ZM273.15,462.93c-43.51,0-78.16,38.68-78.16,105.57C195,645.86,237.7,670,273.15,670c40.3,0,62.06-20.14,71.73-28.2V488.72C323.12,476.63,303,462.93,273.15,462.93Z"/><path class="cls-2" d="M668,223.59V425.86c50-53.18,96.7-64.47,141.83-64.47,87,0,144.24,45.94,144.24,162V769.15H812.26V561.24c0-3.22,10.48-90.25-58-90.25-41.9,0-70.11,38.68-86.22,62.86v235.3H526.19V223.59Z"/></g></g></svg>