<svg xmlns="http://www.w3.org/2000/svg" viewBox="0 0 1992.05 318"><defs><style>.cls-1{fill:#fff;}.cls-2{fill:#00b584;}.cls-3{fill:#dcdcdc;}</style></defs><g id="Layer_2" data-name="Layer 2"><g id="icon-0"><g id="developer"><path class="cls-1" d="M562.38,107.79a47.29,47.29,0,0,1-3.45,18.26A42.75,42.75,0,0,1,535,149.84a47.29,47.29,0,0,1-18.12,3.41H463.66a10.24,10.24,0,0,1-3.94-.75,9.74,9.74,0,0,1-3.15-2.09,9.57,9.57,0,0,1-2.08-3.14,10.06,10.06,0,0,1-.76-3.94V54.52a9.86,9.86,0,0,1,.76-3.87,10.07,10.07,0,0,1,2.08-3.18,9.36,9.36,0,0,1,3.15-2.12,10.06,10.06,0,0,1,3.94-.76h53.23A47.48,47.48,0,0,1,535,48a42.66,42.66,0,0,1,23.92,23.83,47.39,47.39,0,0,1,3.45,18.23ZM542.66,90.06a29.06,29.06,0,0,0-1.85-10.54,23.13,23.13,0,0,0-5.27-8.14,23.83,23.83,0,0,0-8.15-5.23,28.52,28.52,0,0,0-10.5-1.86H473.44v69.26h43.45a28.72,28.72,0,0,0,10.5-1.85,23.83,23.83,0,0,0,8.15-5.23,23.19,23.19,0,0,0,5.27-8.11,28.91,28.91,0,0,0,1.85-10.57Z"/><path class="cls-1" d="M672.36,153.25H601.25a31.58,31.58,0,0,1-9-1.43,26.31,26.31,0,0,1-9-4.74,26.72,26.72,0,0,1-6.9-8.56,27.58,27.58,0,0,1-2.76-12.92V54.52a9.86,9.86,0,0,1,.76-3.87,10.07,10.07,0,0,1,2.08-3.18,9.17,9.17,0,0,1,3.15-2.12,10,10,0,0,1,3.94-.76h88.78v19.7h-79V125.6a8,8,0,0,0,2,5.91,8.12,8.12,0,0,0,6,2h71Zm-8.87-44.4H601.25V89h62.24Z"/><path class="cls-1" d="M792.59,44.59,741.1,149.39a9.38,9.38,0,0,1-3.6,3.9,9.78,9.78,0,0,1-5.27,1.48,9.63,9.63,0,0,1-5.19-1.48,10.06,10.06,0,0,1-3.68-3.9L672,44.59H694l38.21,78.28L770.6,44.59Z"/><path class="cls-1" d="M894.38,153.25H823.27a31.58,31.58,0,0,1-8.95-1.43,26.18,26.18,0,0,1-9-4.74,26.46,26.46,0,0,1-6.9-8.56,27.45,27.45,0,0,1-2.77-12.92V54.52a9.86,9.86,0,0,1,.76-3.87,10.07,10.07,0,0,1,2.08-3.18,9.17,9.17,0,0,1,3.15-2.12,10,10,0,0,1,3.94-.76h88.78v19.7h-79V125.6a8,8,0,0,0,2,5.91,8.12,8.12,0,0,0,6,2h71Zm-8.87-44.4H823.27V89h62.24Z"/><path class="cls-1" d="M1005.66,153.25H915.74a10.2,10.2,0,0,1-3.94-.75,9.56,9.56,0,0,1-5.24-5.23,10.24,10.24,0,0,1-.75-3.94V44.59h19.71v89h80.14Z"/><path class="cls-1" d="M1125,109.3a47.7,47.7,0,0,1-3.41,18.27,42.6,42.6,0,0,1-23.84,23.83,47.62,47.62,0,0,1-18.09,3.37h-26.69a47.85,47.85,0,0,1-18.12-3.37,42.69,42.69,0,0,1-14.4-9.44,43.71,43.71,0,0,1-9.52-14.39,47.34,47.34,0,0,1-3.45-18.27V88.54a47.34,47.34,0,0,1,3.45-18.22,43,43,0,0,1,9.52-14.4,43.6,43.6,0,0,1,14.4-9.44,47.48,47.48,0,0,1,18.12-3.41h26.69a47.26,47.26,0,0,1,18.09,3.41,43.74,43.74,0,0,1,14.36,9.44,42.49,42.49,0,0,1,9.48,14.4A47.7,47.7,0,0,1,1125,88.54Zm-19.71-20.76A28.71,28.71,0,0,0,1103.4,78a22.86,22.86,0,0,0-13.34-13.34,28.33,28.33,0,0,0-10.43-1.85h-26.69a28.52,28.52,0,0,0-10.5,1.85,23.83,23.83,0,0,0-8.15,5.23A23.19,23.19,0,0,0,1029,78a28.71,28.71,0,0,0-1.85,10.57V109.3a28.67,28.67,0,0,0,1.85,10.57,23.09,23.09,0,0,0,5.27,8.11,23.83,23.83,0,0,0,8.15,5.23,28.52,28.52,0,0,0,10.5,1.86h26.54a28.52,28.52,0,0,0,10.5-1.86,23.73,23.73,0,0,0,8.15-5.23,23,23,0,0,0,5.27-8.11,28.67,28.67,0,0,0,1.86-10.57Z"/><path class="cls-1" d="M1245.19,90.06a39.93,39.93,0,0,1-1.67,12,33.68,33.68,0,0,1-4.51,9.35,31.66,31.66,0,0,1-6.55,6.94,38.48,38.48,0,0,1-7.78,4.7,39,39,0,0,1-8.18,2.65,39.91,39.91,0,0,1-7.78.83h-44.58v-19.7h44.58a22.76,22.76,0,0,0,6.87-1.56,16.21,16.21,0,0,0,5.26-3.37,14.63,14.63,0,0,0,3.42-5.11,17.93,17.93,0,0,0,1.21-6.78v-9a25.89,25.89,0,0,0-1.59-6.82,16.19,16.19,0,0,0-3.3-5.3,15,15,0,0,0-5-3.45,17.48,17.48,0,0,0-6.83-1.25h-44.43a8.12,8.12,0,0,0-6,2,8,8,0,0,0-2,5.91v81h-19.72v-81a27.6,27.6,0,0,1,2.77-12.88,26.23,26.23,0,0,1,6.9-8.57,27.18,27.18,0,0,1,9-4.73,30.66,30.66,0,0,1,8.94-1.48h44.58a39.3,39.3,0,0,1,12,1.7,35,35,0,0,1,9.37,4.55,31.27,31.27,0,0,1,6.9,6.56,40.76,40.76,0,0,1,4.7,7.76,37.55,37.55,0,0,1,2.69,8.19,39.71,39.71,0,0,1,.83,7.76Z"/><path class="cls-1" d="M1352.68,153.25h-71.12a31.64,31.64,0,0,1-9-1.43,26.18,26.18,0,0,1-15.88-13.3A27.45,27.45,0,0,1,1254,125.6V54.52a9.86,9.86,0,0,1,.76-3.87,10.07,10.07,0,0,1,2.08-3.18,9.36,9.36,0,0,1,3.15-2.12,10.06,10.06,0,0,1,3.94-.76h88.79v19.7h-79V125.6a8,8,0,0,0,2,5.91,8.14,8.14,0,0,0,6,2h71Zm-8.87-44.4h-62.25V89h62.25Z"/><path class="cls-1" d="M1472.75,81.11a40.15,40.15,0,0,1-1.67,12,33.88,33.88,0,0,1-4.51,9.36,31.93,31.93,0,0,1-6.56,6.94,39.8,39.8,0,0,1-7.77,4.73,37,37,0,0,1-8.19,2.69,39,39,0,0,1-7.77.83l41.17,35.54H1447l-41.09-35.54H1391.7V98h44.58a23,23,0,0,0,6.79-1.55,16.9,16.9,0,0,0,5.3-3.37,14.47,14.47,0,0,0,3.45-5.12,18.09,18.09,0,0,0,1.22-6.86V68.69a6,6,0,0,0-.42-2.54,2.93,2.93,0,0,0-2.43-1.78,12.91,12.91,0,0,0-1.32-.08h-65.06v89H1364.1V54.52a9.86,9.86,0,0,1,.76-3.87,10.07,10.07,0,0,1,2.08-3.18,9.36,9.36,0,0,1,3.15-2.12,10.06,10.06,0,0,1,3.94-.76h74.84A23.76,23.76,0,0,1,1460,47a22.6,22.6,0,0,1,7.39,6,23.28,23.28,0,0,1,4.1,7.77,27.37,27.37,0,0,1,1.25,7.81Z"/></g><g id="hridu"><path class="cls-2" d="M1504.79,89H1574V44.59h19.71V153.25H1574v-44.4h-69.23v44.4h-19.71V44.59h19.71Z"/><path class="cls-2" d="M1717.82,81.11a40.15,40.15,0,0,1-1.67,12,33.88,33.88,0,0,1-4.51,9.36,31.93,31.93,0,0,1-6.56,6.94,39.8,39.8,0,0,1-7.77,4.73,37.2,37.2,0,0,1-8.19,2.69,39.13,39.13,0,0,1-7.77.83l41.17,35.54H1692l-41.1-35.54h-14.17V98h44.58a22.82,22.82,0,0,0,6.78-1.55,16.84,16.84,0,0,0,5.31-3.37,14.47,14.47,0,0,0,3.45-5.12,18.1,18.1,0,0,0,1.21-6.86V68.69a6.23,6.23,0,0,0-.41-2.54,3.16,3.16,0,0,0-1.06-1.29,3.07,3.07,0,0,0-1.37-.49,12.93,12.93,0,0,0-1.33-.08h-65v89h-19.71V54.52a9.86,9.86,0,0,1,.76-3.87,10.07,10.07,0,0,1,2.08-3.18,9.36,9.36,0,0,1,3.15-2.12,10.06,10.06,0,0,1,3.94-.76h74.83A23.78,23.78,0,0,1,1705.08,47a22.6,22.6,0,0,1,7.39,6,23.28,23.28,0,0,1,4.1,7.77,27.37,27.37,0,0,1,1.25,7.81Z"/><path class="cls-2" d="M1749.86,153.25h-19.71V44.59h19.71Z"/><path class="cls-2" d="M1873.8,107.79a47.29,47.29,0,0,1-3.45,18.26,42.75,42.75,0,0,1-23.92,23.79,47.29,47.29,0,0,1-18.12,3.41h-53.23a10.24,10.24,0,0,1-3.94-.75,9.74,9.74,0,0,1-3.15-2.09,9.57,9.57,0,0,1-2.08-3.14,10.06,10.06,0,0,1-.76-3.94V54.52a9.86,9.86,0,0,1,.76-3.87,10.07,10.07,0,0,1,2.08-3.18,9.36,9.36,0,0,1,3.15-2.12,10.06,10.06,0,0,1,3.94-.76h53.23A47.48,47.48,0,0,1,1846.43,48a42.66,42.66,0,0,1,23.92,23.83,47.39,47.39,0,0,1,3.45,18.23Zm-19.71-17.73a28.85,28.85,0,0,0-1.86-10.54,23.13,23.13,0,0,0-5.27-8.14,23.83,23.83,0,0,0-8.15-5.23,28.52,28.52,0,0,0-10.5-1.86h-43.45v69.26h43.45a28.72,28.72,0,0,0,10.5-1.85,23.83,23.83,0,0,0,8.15-5.23,23.19,23.19,0,0,0,5.27-8.11,28.71,28.71,0,0,0,1.86-10.57Z"/><path class="cls-2" d="M1992.05,143.33a10.06,10.06,0,0,1-.76,3.94,9.22,9.22,0,0,1-2.12,3.14,10,10,0,0,1-7.05,2.84h-44.43a61.28,61.28,0,0,1-12.74-1.36,56.88,56.88,0,0,1-12.47-4.2,53.77,53.77,0,0,1-11.34-7.24,47.25,47.25,0,0,1-9.29-10.42,50.91,50.91,0,0,1-6.25-13.79,61.4,61.4,0,0,1-2.28-17.32V44.59H1903V98.92a38,38,0,0,0,2.31,14.1,31,31,0,0,0,5.88,9.62,28,28,0,0,0,7.81,6.06,42.12,42.12,0,0,0,8.07,3.26,38.91,38.91,0,0,0,6.75,1.33c1.94.17,3.22.26,3.83.26h34.65v-89h19.71Z"/></g><g id="tight-bounds"><g id="textblocktransform"><path id="text-1" class="cls-2" d="M457,270.38,456.22,255a.28.28,0,0,0,0-.09.12.12,0,0,1,0-.09h0q0-.72.78-.72h0a1.41,1.41,0,0,1,.86.37h0A19,19,0,0,0,463,258a14.9,14.9,0,0,0,6.22,1.29h0a13.69,13.69,0,0,0,2.07-.18,9.12,9.12,0,0,0,2.19-.65,5.41,5.41,0,0,0,1.75-1.19,2.57,2.57,0,0,0,.71-1.85h0a4.22,4.22,0,0,0-.6-2.24,5.53,5.53,0,0,0-1.59-1.68h0q-.39-.27-1.17-.87c-.52-.4-1.11-.86-1.76-1.38s-1.35-1.07-2.07-1.66-1.4-1.15-2.05-1.69l-1.75-1.43c-.52-.44-.91-.77-1.17-1h0a20.18,20.18,0,0,1-4-3.83,15.12,15.12,0,0,1-2.26-4.05,17.66,17.66,0,0,1-1-4.38q-.21-2.26-.21-4.8h0a15.13,15.13,0,0,1,1.82-7.21,18,18,0,0,1,5.11-5.93,25.64,25.64,0,0,1,7.92-4,33.32,33.32,0,0,1,10.26-1.49h0a18.82,18.82,0,0,1,2.07.16,29.43,29.43,0,0,1,3,.5,25.29,25.29,0,0,1,3.39.93,14,14,0,0,1,3.15,1.56h0a4,4,0,0,1,.76.69,2.09,2.09,0,0,1,.37,1.07h0c.14,2.33.26,4.63.34,6.89s.21,4.64.35,7.17h0c0,.5-.1.82-.3,1a1.16,1.16,0,0,1-.78.25h0a1,1,0,0,1-.74-.26h0q-1.26-1.26-2.58-2.46a20.25,20.25,0,0,0-2.81-2.14,14.24,14.24,0,0,0-3.13-1.48,11,11,0,0,0-3.6-.56h0a14.2,14.2,0,0,0-2.34.19,6.51,6.51,0,0,0-2.1.71,4.23,4.23,0,0,0-1.54,1.43,4.11,4.11,0,0,0-.58,2.28h0a7.77,7.77,0,0,0,.37,2.54,4.26,4.26,0,0,0,1.84,2h0l10.36,7a28.06,28.06,0,0,1,4.61,4,18.88,18.88,0,0,1,2.76,4,15.26,15.26,0,0,1,1.36,3.9,20.67,20.67,0,0,1,.37,3.78h0a16.21,16.21,0,0,1-1,5.69,19.6,19.6,0,0,1-2.72,4.93,21.93,21.93,0,0,1-4.05,4.06,27.79,27.79,0,0,1-4.93,3.06,26.91,26.91,0,0,1-5.46,1.94,23.9,23.9,0,0,1-5.55.67h0c-1.4,0-2.79,0-4.16-.07a32.53,32.53,0,0,1-4-.33,22.76,22.76,0,0,1-3.75-.87,15.14,15.14,0,0,1-3.46-1.62ZM521,241.62h0a29.4,29.4,0,0,0,.67,6.23,17.57,17.57,0,0,0,2.22,5.62,12.34,12.34,0,0,0,4.1,4.06,11.87,11.87,0,0,0,6.3,1.56h0a14.1,14.1,0,0,0,5.07-1.18,12.78,12.78,0,0,0,3.76-2.64,14.32,14.32,0,0,0,2.6-3.71,23.17,23.17,0,0,0,1.65-4.39,31.13,31.13,0,0,0,.84-4.74c.16-1.6.23-3.15.23-4.64h0a21.73,21.73,0,0,0-.81-5.94,15.74,15.74,0,0,0-2.46-5.07,12.52,12.52,0,0,0-4.08-3.53,11.54,11.54,0,0,0-5.67-1.34h0a10.72,10.72,0,0,0-4.6,1,13,13,0,0,0-3.64,2.53,15.47,15.47,0,0,0-2.74,3.62,27.05,27.05,0,0,0-1.91,4.22,26.56,26.56,0,0,0-1.11,4.36A27.76,27.76,0,0,0,521,241.62Zm8.43,31.65h0a26.54,26.54,0,0,1-11.58-2.42,25.49,25.49,0,0,1-8.61-6.53,29.43,29.43,0,0,1-5.39-9.52A34.8,34.8,0,0,1,502,243.35h0a39.27,39.27,0,0,1,1.91-12.49,33.89,33.89,0,0,1,5.37-10.14,32.73,32.73,0,0,1,8.24-7.45A35.75,35.75,0,0,1,528,208.76h0c.34,0,.61-.27.79-.83a14.48,14.48,0,0,0,.5-1.8,14.05,14.05,0,0,1,.51-1.82q.3-.81.87-.81h0a77.74,77.74,0,0,1,15.06,2.95,32.74,32.74,0,0,1,11.34,6,25.17,25.17,0,0,1,7.14,9.82,37.54,37.54,0,0,1,2.48,14.47h0a38.5,38.5,0,0,1-1.33,10.3,36.26,36.26,0,0,1-3.76,8.9,33.42,33.42,0,0,1-5.8,7.29,35,35,0,0,1-7.53,5.46,37.5,37.5,0,0,1-8.91,3.43A40.89,40.89,0,0,1,529.45,273.27Zm86.07-37.69h0a19.59,19.59,0,0,1-.66,1.85c-.31.82-.67,1.73-1.07,2.74s-.85,2.1-1.33,3.23-1,2.26-1.43,3.34h0a2.87,2.87,0,0,1-.71,1.1,3,3,0,0,1-1.66.37h0l-12.6.23-1.56,19.15a2,2,0,0,1-.21.74,1.35,1.35,0,0,1-.53.58h0a10.8,10.8,0,0,1-1,.49c-.59.29-1.33.61-2.22,1l-2.94,1.22c-1.06.42-2.11.81-3.14,1.18s-2,.65-2.85.9a7.76,7.76,0,0,1-2,.37h0a3.8,3.8,0,0,1-1.57-.32,1.3,1.3,0,0,1-.71-1.32h0c0-1.44,0-3,.1-4.77s.22-3.5.38-5.3.3-3.57.47-5.3.31-3.33.43-4.77h0l.3-3.62a50.48,50.48,0,0,1-5.18-.19c-1-.13-1.56-.47-1.56-1h0a2.76,2.76,0,0,1,.66-1.47h0c.6-.83,1.28-1.84,2.05-3l2.19-3.46q1.07-1.68,1.86-3t1-1.59h0l.81-11.87-1.43,0-1.09,0-.92,0-.92,0h0a13.34,13.34,0,0,1-3-.23c-.59-.16-.89-.45-.89-.89h0a3.57,3.57,0,0,1,.52-1.25c.35-.64.77-1.36,1.27-2.17s1.05-1.69,1.64-2.6,1.12-1.73,1.57-2.51h0l2.6-4.4,19.64-.69,7.54-.28,6.93-.28,5.46-.25,3.19-.14h0l.24,0a1.12,1.12,0,0,1,.41.12,1.26,1.26,0,0,1,.41.37,1.25,1.25,0,0,1,.19.74h0a8.64,8.64,0,0,1-.6,1.72c-.4,1-1,2.43-1.73,4.36h0l-1.89,5a3.42,3.42,0,0,1-.69,1.13,2.65,2.65,0,0,1-1.65.42h0c-1,0-2,.07-3,.13l-3.11.17h0l-13.11.66c-.18,1.12-.3,2-.37,2.49s-.12,1-.14,1.36,0,.72,0,1.08,0,.93,0,1.71h0c0,.54-.07,1-.1,1.38l-.14,1.09c0,.37-.08.75-.13,1.15s-.08.9-.1,1.5h0l5.58-.17c1.83-.05,3.51-.1,5.06-.16l4-.16c1.12-.05,1.91-.07,2.37-.07h0a1.66,1.66,0,0,1,.78.26,1.09,1.09,0,0,1,.42,1h0A2.85,2.85,0,0,1,615.52,235.58Zm18.41,37v-.17c.14-2.1.29-4.12.44-6.08s.28-3.85.39-5.69h0l1.54-20.36c.18-1.56.33-3,.44-4.24s.22-2.54.29-3.76.14-2.45.21-3.71.15-2.64.23-4.16h0c-.94,0-1.94,0-3,0H622.85c-.32,0-.51-.12-.58-.35a2.52,2.52,0,0,1-.11-.67h0V223l4.74-12.47,0-.18c0-.14.1-.26.29-.35a3.57,3.57,0,0,1,1.27-.25h0l11.54-.67c3.72-.21,7.41-.41,11-.59s7.27-.33,10.9-.51,7.39-.33,11.24-.47h0a4.39,4.39,0,0,1,1.11.14c.39.08.59.39.59.93h0a.32.32,0,0,1-.06.18.57.57,0,0,0,0,.18h0c-.46,1.17-.88,2.29-1.27,3.35s-.77,2.12-1.15,3.15-.76,2.09-1.15,3.16-.81,2.18-1.27,3.35h0a2.56,2.56,0,0,0-.16.41c-.1.25-.23.52-.39.83a3.41,3.41,0,0,1-.71.83,1.71,1.71,0,0,1-1.08.44h0a2,2,0,0,0-.42-.05h-12c-.14,1.47-.28,3-.41,4.66s-.28,3.24-.46,4.79h0l-3.14,33.69a5.44,5.44,0,0,1-.14.77.82.82,0,0,1-.59.55h0l-12.21,4.4-1.25.44a4.82,4.82,0,0,1-1.51.25h0a1.86,1.86,0,0,1-1.06-.3,1.25,1.25,0,0,1-.46-1.12Zm93-32.46,8.51-27.61a6.46,6.46,0,0,1,.47-1.27,1.68,1.68,0,0,1,1.17-.71h0l12.72-2.93a.74.74,0,0,0,.22,0,.68.68,0,0,1,.21,0h0a.86.86,0,0,1,.85.51,2.32,2.32,0,0,1,.24,1h0c0,.06,0,.18,0,.35a1.44,1.44,0,0,1,0,.34h0L733.35,264c-.46,1.18-.84,2.14-1.15,2.87a12.86,12.86,0,0,1-.9,1.82,5.24,5.24,0,0,1-1,1.18,8.28,8.28,0,0,1-1.55.94c-.64.31-1.44.68-2.42,1.11s-2.23,1-3.71,1.69h0a3,3,0,0,1-1.22.39h0a1.16,1.16,0,0,1-1-.51,4.87,4.87,0,0,1-.56-1.17h0L712.37,246l-9.23,19a5.54,5.54,0,0,1-1,1.38,24.14,24.14,0,0,1-1.75,1.77c-.64.6-1.29,1.18-1.94,1.74s-1.17,1-1.57,1.37h0c-.38.31-.78.63-1.19.93s-.85.61-1.27.87a9.69,9.69,0,0,1-1.24.63,2.85,2.85,0,0,1-1.09.23h0a1.45,1.45,0,0,1-1.47-1.25h0l-16.74-59c-.06-.22-.12-.45-.19-.69a2.09,2.09,0,0,1-.11-.63h0a3.06,3.06,0,0,1,.52-1.82,3.92,3.92,0,0,1,1.8-1.26,16.12,16.12,0,0,1,3.46-.83q2.16-.33,5.48-.55h0c1-.14,1.9-.24,2.6-.3s1.31-.08,1.8-.08h0a2.45,2.45,0,0,1,1.65.38,3.46,3.46,0,0,1,.68,1.29h0l8.89,34.2,7.37-12.66-3-13a5.1,5.1,0,0,1-.23-1.55h0a2.28,2.28,0,0,1,.53-1.59,3.64,3.64,0,0,1,1.71-1,24.05,24.05,0,0,1,3.18-.69c1.31-.2,2.91-.43,4.81-.69h0L717,212c.61-.06,1.12-.09,1.56-.09h0a2.92,2.92,0,0,1,1.77.39,2.21,2.21,0,0,1,.69,1.25h0Zm20.24,27.77h0c.38-.76.77-1.6,1.17-2.53a30.44,30.44,0,0,0,1.11-3h0l1.17-2.84c-.52-.78-1.05-1.62-1.58-2.53s-1-1.84-1.45-2.79a24.47,24.47,0,0,1-1.06-2.84,10,10,0,0,1-.4-2.76h0c0-.06.22-.11.67-.16l1.68-.1c.68,0,1.42,0,2.21-.06l2.19-.05,1.7,0,.65,0h0c.67-1.73,1.32-3.38,1.94-4.93s1.28-3.12,1.91-4.7,1.26-3.19,1.89-4.84,1.28-3.44,1.91-5.33h0q1.8-5.35,3.54-9.4t3.23-7.54h0a2.25,2.25,0,0,1,.58-.82,5.4,5.4,0,0,1,.89-.61,6.26,6.26,0,0,1,.92-.43c.3-.12.55-.2.72-.26h0l1.31-.39c.77-.24,1.64-.49,2.62-.74s2-.49,2.91-.69a11.85,11.85,0,0,1,2.3-.3h.78a2.81,2.81,0,0,1,1.32.33,1.75,1.75,0,0,1,.83,1.27h0q2.07,5.31,4.42,11.57t4.6,13.84h0c.81,2.69,1.61,5.25,2.38,7.66s1.56,4.78,2.34,7.08,1.56,4.6,2.35,6.89l2.44,7.12h0a14.31,14.31,0,0,0,.79,2.46,12.11,12.11,0,0,0,.74,1.43,7.7,7.7,0,0,0,.57.74.8.8,0,0,1,.21.51h0q0,.26-.81.51h0l-9.28,3-2.1.77q-1.1.39-2,.69c-.63.2-1.19.37-1.66.5a4.31,4.31,0,0,1-1,.19h-.25a1,1,0,0,1-.87-.37,2.33,2.33,0,0,1-.35-.71h0c-.28-.95-.57-1.8-.85-2.56s-.58-1.53-.85-2.29-.54-1.58-.81-2.44-.55-1.88-.81-3.06h0c-.05-.14-.2-.26-.46-.37a5.62,5.62,0,0,0-.94-.23,8.07,8.07,0,0,0-1.15-.1c-.4,0-.77,0-1.11,0h0c-1.1,0-2,0-2.65,0l-1.8,0-1.49,0c-.47,0-1.05,0-1.75,0h0l-2.56,0c-.87,0-1.67,0-2.39-.06h0l-2.47-.09c-.74,2.08-1.49,4-2.25,5.82s-1.54,3.68-2.4,5.61h0a1,1,0,0,1-.41.57,1.23,1.23,0,0,1-.67.21h0c-.18,0-.28,0-.3-.05h0a58.17,58.17,0,0,1-7-3Q749.27,269.26,747.15,267.89Zm29.07-38.78h0q-1,3.84-2.05,7t-1.85,5.55c-.56,1.61-1,3-1.43,4.08s-.7,2-.87,2.56h0v.39a.76.76,0,0,1,0,.34h10.35c-.31-1.41-.65-2.83-1-4.26s-.72-2.95-1.06-4.54-.69-3.28-1-5.09S776.54,231.29,776.22,229.11Zm55.68,14.58-2.12,23.9a6.08,6.08,0,0,1-.16.74,1,1,0,0,1-.59.58h0c-.1.06-.67.27-1.69.64s-2.21.77-3.54,1.25l-4,1.41-3,1.1h0c-.36.15-.79.3-1.29.46a5.14,5.14,0,0,1-1.49.23h0a1.9,1.9,0,0,1-1.06-.3,1.27,1.27,0,0,1-.44-1.12h0c0-1.27,0-2.43.11-3.48s.16-2.14.28-3.28.24-2.43.37-3.82.25-3.06.35-5h0q.24-3.79.48-7.31t.51-7.31h0l.62-7.39c.09-1.2.17-2.42.25-3.67s.18-2.55.27-3.87h0l.47-5.26c0-.06-.09-.09-.26-.09h0a6.78,6.78,0,0,0-1.17.16l-1.94.37c-.75.14-1.57.29-2.48.44s-1.84.32-2.79.46h0a1.39,1.39,0,0,1-.65-.16c-.23-.09-.34-.21-.34-.35h0a.37.37,0,0,1,.09-.27h0l7-12.2q2.37-.52,5.11-1.06c1.82-.36,3.78-.68,5.88-1s4.34-.51,6.7-.7,4.86-.28,7.51-.28h0a52.29,52.29,0,0,1,8.73.88,24,24,0,0,1,7.55,2.68,14.7,14.7,0,0,1,5.3,5.09,15.07,15.07,0,0,1,2,8.13h0a13.13,13.13,0,0,1-.93,5,16,16,0,0,1-2.37,4.11,20.6,20.6,0,0,1-3.16,3.23,32.89,32.89,0,0,1-3.31,2.41,30.09,30.09,0,0,1-2.77,1.57c-.82.39-1.36.64-1.65.76h0a.48.48,0,0,0,.06.21l.28.49q.21.38.63,1c.28.43.62,1,1.05,1.82h0a30.92,30.92,0,0,1,1.64,2.77l2.26,4.06q1.34,2.35,3.06,5.25t4,6.22h0a3.44,3.44,0,0,0,1.68.79,14.52,14.52,0,0,0,1.77.16c.55,0,1,0,1.39.09s.55.23.55.55h0c0,.22-.24.48-.71.79a16.12,16.12,0,0,1-1.66.94l-1.92.9c-.65.28-1.15.51-1.49.69h0q-1,.51-2.16,1c-.74.31-1.54.67-2.42,1.06s-1.81.84-2.86,1.36-2.23,1.13-3.55,1.85h0a4,4,0,0,1-1,.41,3.84,3.84,0,0,1-.85.1h0a2.4,2.4,0,0,1-1.35-.37,3.53,3.53,0,0,1-.93-.88,5.86,5.86,0,0,1-.64-1.06c-.15-.35-.29-.65-.41-.88h0Zm2.24-23.64-1.73,18.34a10.75,10.75,0,0,0,4.58-1.13,18,18,0,0,0,4.31-2.88,15.89,15.89,0,0,0,3.18-4,9.18,9.18,0,0,0,1.25-4.54h0q0-6.26-7.51-6.26h0a12.11,12.11,0,0,0-2.37.2c-.63.13-1.2.22-1.71.28Zm74.94,15.19h0a16.15,16.15,0,0,1-.66,1.7c-.3.73-.67,1.55-1.09,2.47s-.86,1.92-1.35,3-.93,2.1-1.39,3.16h0a4.66,4.66,0,0,1-.48.88,1.18,1.18,0,0,1-.69.41,5.28,5.28,0,0,1-1.31.16c-.56,0-1.35,0-2.35.07h0l-6,.12-1.2,13.2h22.13v1.68c-.06.06-.3.44-.73,1.14s-.94,1.55-1.52,2.53-1.16,2-1.8,2.95-1.16,1.78-1.59,2.39h0a4.19,4.19,0,0,1-1,1.23,3.39,3.39,0,0,1-1.22.67,6.42,6.42,0,0,1-1.46.27c-.53,0-1.12,0-1.75,0h0q-3.89,0-8.1-.17t-8.39-.43c-2.78-.17-5.5-.37-8.17-.58s-5.13-.44-7.4-.67h0a.83.83,0,0,1-.55-.35,1.12,1.12,0,0,1-.23-.69h0c-.12,0,0-.24.23-.73s.67-1.13,1.15-1.91,1-1.64,1.62-2.65,1.16-2,1.7-3h0l.69-9.72c.12-1.63.21-2.85.28-3.65s.11-1.24.11-1.29h0a30.08,30.08,0,0,1-3.85-.27c-.85-.14-1.28-.46-1.28-1h0a3.37,3.37,0,0,1,.62-1.29c.42-.64.93-1.36,1.54-2.17s1.24-1.69,1.91-2.58,1.28-1.7,1.8-2.46h0l1.08-14.66h-.14c-.63,0-1.2.06-1.72.07l-1.43,0h0a13.34,13.34,0,0,1-3-.23c-.59-.16-.88-.46-.88-.88h0a3.63,3.63,0,0,1,.51-1.26q.51-.94,1.29-2.19c.52-.81,1.07-1.67,1.64-2.58s1.1-1.74,1.56-2.52h0l2.6-4.4h18l21.28-1.55h.23a1.81,1.81,0,0,1,.41.14,1.14,1.14,0,0,1,.42.38,1.19,1.19,0,0,1,.18.72h0l-.64,2.24c-.2.64-.44,1.31-.74,2s-.59,1.42-.93,2.17h0l-1.91,5a3.21,3.21,0,0,1-.69,1.11,2.57,2.57,0,0,1-1.65.44h0q-3.27.09-7.3.29c-2.69.12-5.78.25-9.26.37h0a3.82,3.82,0,0,0-.17.95q0,.38-.09,1.41h0l-.21,2c-.06.92-.15,1.92-.27,3s-.25,2.36-.42,3.92h0l4.29-.18,3.82-.16,3-.1c.85,0,1.45,0,1.79,0h0a1.58,1.58,0,0,1,.78.27,1,1,0,0,1,.42,1h0A3,3,0,0,1,909.08,235.24Zm69.81,0h0a16.15,16.15,0,0,1-.66,1.7c-.31.73-.68,1.55-1.09,2.47s-.87,1.92-1.34,3-.94,2.1-1.4,3.16h0a4.66,4.66,0,0,1-.48.88,1.18,1.18,0,0,1-.69.41,5.37,5.37,0,0,1-1.32.16l-2.35.07h0l-6,.12-1.2,13.2h22.13v1.68q-.09.09-.72,1.14c-.44.71-.95,1.55-1.52,2.53s-1.18,2-1.81,2.95-1.17,1.78-1.61,2.39h0a4.12,4.12,0,0,1-1,1.23,3.76,3.76,0,0,1-1.22.67,6.62,6.62,0,0,1-1.47.27c-.54,0-1.13,0-1.75,0h0q-3.88,0-8.1-.17t-8.39-.43c-2.79-.17-5.52-.37-8.18-.58s-5.12-.44-7.39-.67h0a.83.83,0,0,1-.55-.35,1.12,1.12,0,0,1-.23-.69h0c-.12,0,0-.24.23-.73s.66-1.13,1.15-1.91,1-1.64,1.61-2.65,1.16-2,1.71-3h0l.69-9.72c.12-1.63.21-2.85.28-3.65s.11-1.24.11-1.29h0a30.31,30.31,0,0,1-3.87-.27c-.85-.14-1.27-.46-1.27-1h0a3.29,3.29,0,0,1,.63-1.29c.42-.64.92-1.36,1.52-2.17l1.93-2.58c.67-.88,1.27-1.7,1.79-2.46h0l1.07-14.66H948c-.64,0-1.21.06-1.73.07l-1.42,0h0a13.4,13.4,0,0,1-3-.23c-.59-.16-.88-.46-.88-.88h0a3.63,3.63,0,0,1,.51-1.26q.51-.94,1.29-2.19c.52-.81,1.07-1.67,1.64-2.58s1.1-1.74,1.56-2.52h0l2.58-4.4h18l21.26-1.55h.24a1.81,1.81,0,0,1,.41.14,1.2,1.2,0,0,1,.41.38,1.13,1.13,0,0,1,.19.72h0l-.63,2.24c-.22.64-.46,1.31-.75,2s-.6,1.42-.95,2.17h0l-1.89,5a3.21,3.21,0,0,1-.69,1.11,2.57,2.57,0,0,1-1.65.44h0c-2.18.06-4.61.16-7.31.29s-5.77.25-9.25.37h0a3.82,3.82,0,0,0-.17.95q0,.38-.09,1.41h0l-.21,2c-.06.92-.15,1.92-.27,3s-.26,2.36-.42,3.92h0l4.29-.18,3.82-.16,3-.1c.85,0,1.45,0,1.8,0h0a1.58,1.58,0,0,1,.78.27,1,1,0,0,1,.42,1h0A3,3,0,0,1,978.89,235.24Zm49.43,10.3V213.25c.24-.95.44-1.65.6-2.08a1.55,1.55,0,0,1,1.13-.87h0l11.17-2.61a3.52,3.52,0,0,1,1.13-.18h0a.93.93,0,0,1,.82.39,2.9,2.9,0,0,1,.26,1.46h0a22,22,0,0,0-.44,3.17c-.11,1.42-.19,3-.25,4.68s-.1,3.39-.14,5.1,0,3.21,0,4.47h0v2.37c0,1.79,0,3.73,0,5.83s-.08,4.22-.12,6.37-.09,4.29-.14,6.4-.12,4.06-.18,5.9h0l-.27,7.38a2.77,2.77,0,0,0,0,.39v.34h0v.65c0,.48,0,.89,0,1.22s0,.62,0,.88h0a4.51,4.51,0,0,1,0,.78,1.62,1.62,0,0,1-.33.67,4.24,4.24,0,0,1-.71.67c-.3.24-.7.53-1.22.87h0c-.3.2-.77.49-1.43.88s-1.39.82-2.19,1.31l-2.51,1.52c-.86.51-1.65,1-2.37,1.39s-1.3.76-1.75,1l-.67.39h0l-20-30.79-1.8,25.24c0,.22-.09.47-.16.73a1,1,0,0,1-.58.6h0c-.26.11-.71.3-1.35.54l-2.21.83c-.84.32-1.74.65-2.68,1l-2.65.91c-.84.27-1.58.49-2.23.66a6.58,6.58,0,0,1-1.31.26h0a1.69,1.69,0,0,1-1.08-.35,1.52,1.52,0,0,1-.42-1.24h0q.42-5.39,1-11.76c.37-4.24.72-8.59,1.08-13s.66-8.91,1-13.35.54-8.66.74-12.65h0a4.4,4.4,0,0,0-.53-1.15c-.36-.65-.77-1.35-1.22-2.12s-.83-1.47-1.2-2.15a4.36,4.36,0,0,1-.53-1.27h0a.7.7,0,0,1,.32-.55,8.52,8.52,0,0,1,1.06-.71h0l11.52-6.5a2.29,2.29,0,0,0,.36-.05,2.27,2.27,0,0,1,.42,0h0a2.14,2.14,0,0,1,.74.11,1.33,1.33,0,0,1,.59.67h0Zm22.13-2.37h0a38.39,38.39,0,0,1,1.15-9.5,36.36,36.36,0,0,1,3.27-8.5A33.78,33.78,0,0,1,1060,218a32.73,32.73,0,0,1,6.7-5.51,32.12,32.12,0,0,1,8.06-3.57,33.26,33.26,0,0,1,9.12-1.23h0a39.41,39.41,0,0,1,6.66.49,30.94,30.94,0,0,1,5,1.24,18.11,18.11,0,0,1,3.57,1.66,21.53,21.53,0,0,1,2.41,1.73h0s-.06.1-.06.3h0c0,.44,0,1.22.11,2.37s.16,2.43.27,3.85.19,2.83.26,4.29.11,2.7.11,3.76h0a1.18,1.18,0,0,1-.18.58c-.12.23-.41.34-.87.34h0a4.35,4.35,0,0,1-1-.14h0a8.57,8.57,0,0,1-2.28-1.18c-.92-.62-2-1.26-3.22-1.95a27.32,27.32,0,0,0-4.1-1.8,14.73,14.73,0,0,0-4.93-.79h0a13.81,13.81,0,0,0-6.43,1.48,14.34,14.34,0,0,0-4.91,4.13,20,20,0,0,0-3.17,6.31,27,27,0,0,0-1.11,7.91h0a34.14,34.14,0,0,0,.69,7,19,19,0,0,0,2.08,5.67,11.55,11.55,0,0,0,3.49,3.77,8.61,8.61,0,0,0,4.87,1.37h0a19.4,19.4,0,0,0,6.17-1.16h0l1-6.08h-8.23q.93-5.2,1.64-8.19a33.85,33.85,0,0,1,1.29-4.49,3.88,3.88,0,0,1,1.25-1.89,2.85,2.85,0,0,1,1.51-.39h22.69a6.32,6.32,0,0,1,1.45.12c.3.1.46.4.46.92h0a5.57,5.57,0,0,1-.09.92c-.06.37-.13.81-.21,1.33h0l-2.18,7.24c-.26.92-.47,1.63-.63,2.14a2.91,2.91,0,0,1-.66,1.11,1.62,1.62,0,0,1-1.06.42,18.27,18.27,0,0,1-1.91.07h0a.75.75,0,0,0-.83.57c-.08.37-.15.76-.21,1.16h0c-.18,1.26-.35,2.52-.51,3.77s-.34,2.42-.5,3.49-.33,2-.49,2.85a9.2,9.2,0,0,1-.53,1.8h0q-2.94,1.86-5.32,3.25a34.86,34.86,0,0,1-4.77,2.33,27.7,27.7,0,0,1-5,1.4,35.07,35.07,0,0,1-6,.47h0a29.32,29.32,0,0,1-11.38-2.2,27.37,27.37,0,0,1-9.23-6.19,29.26,29.26,0,0,1-6.15-9.5A32.29,32.29,0,0,1,1050.45,243.17Zm63.73,29.24h0l2.16-29.5q1.07-14.83,1.6-21.78t.52-6.89h0c0-.52,0-1,.09-1.31a2.78,2.78,0,0,1,.17-.85,1.12,1.12,0,0,1,.34-.52,1.6,1.6,0,0,1,.65-.25h0l14.92-3.59a3.79,3.79,0,0,1,1.16-.17h0a.88.88,0,0,1,.84.37,3.41,3.41,0,0,1,.21,1.48h0c-.2,1.79-.36,3.46-.48,5s-.21,3-.28,4.45-.14,2.77-.2,4.08-.13,2.61-.21,3.9h0c-.18,1.41-.33,2.81-.46,4.23s-.25,2.86-.35,4.38-.24,3.1-.37,4.78-.29,3.51-.46,5.5h0l-1.89,22.73a6.08,6.08,0,0,1-.16.74,1,1,0,0,1-.59.59h0a4.05,4.05,0,0,0-.51.17l-1.25.46c-.52.18-1.12.37-1.81.58s-1.43.39-2.21.55h0c-1.29.3-2.42.59-3.37.87l-2.58.79c-.74.25-1.43.44-2.07.59a8.83,8.83,0,0,1-1.89.21h0a1.64,1.64,0,0,1-1.08-.34A1.52,1.52,0,0,1,1114.18,272.41Zm65.59-26.87V213.25a14.34,14.34,0,0,1,.6-2.08,1.52,1.52,0,0,1,1.13-.87h0l11.17-2.61a3.31,3.31,0,0,1,1.11-.18h0a.92.92,0,0,1,.83.39,2.92,2.92,0,0,1,.25,1.46h0a22.58,22.58,0,0,0-.42,3.17q-.18,2.13-.27,4.68t-.12,5.1c0,1.72,0,3.21,0,4.47h0v2.37c0,1.79,0,3.73,0,5.83s-.06,4.22-.11,6.37-.1,4.29-.16,6.4-.1,4.06-.16,5.9h0l-.26,7.38a2.87,2.87,0,0,0,0,.39v.34h0v.65c0,.48,0,.89,0,1.22s0,.62,0,.88h0a3.58,3.58,0,0,1-.07.78,1.38,1.38,0,0,1-.32.67,4.67,4.67,0,0,1-.71.67q-.45.36-1.23.87h0c-.29.2-.76.49-1.42.88s-1.41.82-2.21,1.31l-2.49,1.52-2.38,1.39c-.72.43-1.31.76-1.75,1l-.66.39h0l-20-30.79-1.82,25.24a5.79,5.79,0,0,1-.14.73,1,1,0,0,1-.59.6h0c-.26.11-.7.3-1.34.54l-2.23.83c-.85.32-1.74.65-2.67,1l-2.65.91c-.83.27-1.58.49-2.22.66a6.71,6.71,0,0,1-1.31.26h0a1.65,1.65,0,0,1-1.08-.35,1.49,1.49,0,0,1-.44-1.24h0q.43-5.39,1-11.76c.38-4.24.73-8.59,1.08-13s.67-8.91,1-13.35.56-8.66.76-12.65h0a4.45,4.45,0,0,0-.55-1.15c-.35-.65-.75-1.35-1.2-2.12s-.85-1.47-1.2-2.15a4.08,4.08,0,0,1-.55-1.27h0a.68.68,0,0,1,.32-.55,10.43,10.43,0,0,1,1.06-.71h0l11.52-6.5a2.38,2.38,0,0,0,.37-.05,2.1,2.1,0,0,1,.41,0h0a2.22,2.22,0,0,1,.76.11,1.32,1.32,0,0,1,.58.67h0Zm60.87-10.3h0a13.38,13.38,0,0,1-.64,1.7c-.32.73-.68,1.55-1.1,2.47l-1.34,3c-.47,1.05-.94,2.1-1.4,3.16h0a4.21,4.21,0,0,1-.47.88,1.32,1.32,0,0,1-.69.41,5.4,5.4,0,0,1-1.33.16l-2.35.07h0l-6,.12-1.22,13.2h22.15v1.68q-.09.09-.75,1.14l-1.5,2.53c-.58,1-1.18,2-1.82,2.95s-1.15,1.78-1.59,2.39h0a4,4,0,0,1-1,1.23,3.66,3.66,0,0,1-1.24.67,6.42,6.42,0,0,1-1.46.27c-.53,0-1.12,0-1.75,0h0c-2.58,0-5.28-.06-8.08-.17s-5.6-.26-8.4-.43-5.52-.37-8.18-.58-5.13-.44-7.4-.67h0a.75.75,0,0,1-.53-.35,1,1,0,0,1-.25-.69h0c-.11,0,0-.24.25-.73s.65-1.13,1.14-1.91,1-1.64,1.61-2.65,1.16-2,1.72-3h0l.69-9.72c.1-1.63.2-2.85.28-3.65s.11-1.24.11-1.29h0a30,30,0,0,1-3.87-.27c-.85-.14-1.28-.46-1.28-1h0a3.22,3.22,0,0,1,.64-1.29c.41-.64.92-1.36,1.52-2.17s1.24-1.69,1.93-2.58,1.26-1.7,1.78-2.46h0l1.08-14.66h-.13c-.63,0-1.21.06-1.73.07l-1.41,0h0a13.49,13.49,0,0,1-3-.23c-.59-.16-.88-.46-.88-.88h0a3.42,3.42,0,0,1,.53-1.26q.51-.94,1.29-2.19l1.64-2.58c.57-.9,1.08-1.74,1.56-2.52h0l2.58-4.4h18l21.26-1.55h.25a2,2,0,0,1,.41.14,1.18,1.18,0,0,1,.4.38,1.12,1.12,0,0,1,.2.72h0l-.66,2.24c-.2.64-.44,1.31-.72,2s-.61,1.42-1,2.17h0l-1.89,5a3.21,3.21,0,0,1-.69,1.11,2.53,2.53,0,0,1-1.64.44h0q-3.29.09-7.32.29c-2.68.12-5.77.25-9.26.37h0a4.23,4.23,0,0,0-.16.95q0,.38-.09,1.41h0l-.23,2c0,.92-.13,1.92-.24,3s-.27,2.36-.44,3.92h0l4.29-.18,3.82-.16,3-.1c.85,0,1.45,0,1.79,0h0a1.46,1.46,0,0,1,.77.27,1,1,0,0,1,.45,1h0A2.68,2.68,0,0,1,1240.64,235.24Zm49.92,0h0a13.77,13.77,0,0,1-.65,1.7c-.32.73-.68,1.55-1.1,2.47s-.86,1.92-1.34,3-.94,2.1-1.4,3.16h0a4.21,4.21,0,0,1-.47.88,1.18,1.18,0,0,1-.69.41,5.35,5.35,0,0,1-1.31.16c-.57,0-1.35,0-2.35.07h0l-6,.12-1.2,13.2h22.13v1.68c-.06.06-.3.44-.73,1.14s-.94,1.55-1.52,2.53-1.17,2-1.8,2.95-1.17,1.78-1.61,2.39h0a4,4,0,0,1-1,1.23,3.39,3.39,0,0,1-1.22.67,6.62,6.62,0,0,1-1.47.27c-.53,0-1.11,0-1.75,0h0q-3.88,0-8.09-.17t-8.4-.43c-2.79-.17-5.51-.37-8.16-.58s-5.13-.44-7.41-.67h0a.79.79,0,0,1-.54-.35,1.06,1.06,0,0,1-.23-.69h0c-.12,0,0-.24.23-.73s.66-1.13,1.15-1.91,1-1.64,1.62-2.65,1.16-2,1.7-3h0l.69-9.72c.12-1.63.21-2.85.28-3.65s.11-1.24.11-1.29h0a30.27,30.27,0,0,1-3.86-.27c-.85-.14-1.27-.46-1.27-1h0a3.37,3.37,0,0,1,.62-1.29c.41-.64.92-1.36,1.54-2.17s1.23-1.69,1.91-2.58,1.28-1.7,1.8-2.46h0l1.08-14.66h-.14c-.63,0-1.2.06-1.72.07l-1.43,0h0a13.34,13.34,0,0,1-3-.23c-.59-.16-.89-.46-.89-.88h0a3.52,3.52,0,0,1,.52-1.26q.51-.94,1.29-2.19l1.64-2.58q.87-1.35,1.56-2.52h0l2.58-4.4h18l21.28-1.55h.23a2,2,0,0,1,.41.14,1.18,1.18,0,0,1,.4.38,1.12,1.12,0,0,1,.2.72h0l-.64,2.24c-.2.64-.45,1.31-.74,2s-.6,1.42-.94,2.17h0l-1.91,5a3.21,3.21,0,0,1-.69,1.11,2.53,2.53,0,0,1-1.64.44h0q-3.27.09-7.32.29c-2.68.12-5.76.25-9.24.37h0a3.49,3.49,0,0,0-.18.95q0,.38-.09,1.41h0l-.21,2c-.06.92-.14,1.92-.26,3s-.25,2.36-.43,3.92h0l4.3-.18,3.82-.16,3-.1c.85,0,1.44,0,1.79,0h0a1.52,1.52,0,0,1,.77.27,1,1,0,0,1,.43,1h0A2.63,2.63,0,0,1,1290.56,235.24Zm37.19,8.45-2.1,23.9a6.08,6.08,0,0,1-.16.74,1,1,0,0,1-.59.58h0c-.11.06-.68.27-1.69.64s-2.21.77-3.56,1.25l-4,1.41-3,1.1h0a13.4,13.4,0,0,1-1.27.46,5.24,5.24,0,0,1-1.49.23h0a1.9,1.9,0,0,1-1.06-.3,1.25,1.25,0,0,1-.46-1.12h0c0-1.27,0-2.43.13-3.48s.16-2.14.26-3.28.24-2.43.37-3.82.26-3.06.37-5h0q.23-3.79.48-7.31t.51-7.31h0l.61-7.39c.09-1.2.18-2.42.26-3.67s.17-2.55.27-3.87h0l.46-5.26c0-.06-.09-.09-.25-.09h0a6.55,6.55,0,0,0-1.17.16l-1.94.37-2.48.44c-.9.16-1.84.32-2.79.46h0a1.5,1.5,0,0,1-.67-.16c-.21-.09-.32-.21-.32-.35h0a.37.37,0,0,1,.09-.27h0l7-12.2q2.39-.52,5.13-1.06c1.82-.36,3.78-.68,5.88-1s4.32-.51,6.68-.7,4.86-.28,7.51-.28h0a51.86,51.86,0,0,1,8.73.88,24.07,24.07,0,0,1,7.57,2.68,14.86,14.86,0,0,1,5.3,5.09,15.07,15.07,0,0,1,2,8.13h0a13.13,13.13,0,0,1-.93,5,16,16,0,0,1-2.37,4.11,20.28,20.28,0,0,1-3.18,3.23,30.64,30.64,0,0,1-3.29,2.41,31.49,31.49,0,0,1-2.79,1.57c-.8.39-1.35.64-1.64.76h0a.4.4,0,0,0,.07.21l.28.49c.14.25.35.6.62,1s.62,1,1.06,1.82h0c.46.69,1,1.61,1.64,2.77l2.26,4.06q1.32,2.35,3,5.25c1.16,1.93,2.48,4,4,6.22h0a3.36,3.36,0,0,0,1.68.79,14.7,14.7,0,0,0,1.77.16c.54,0,1,0,1.37.09s.57.23.57.55h0c0,.22-.24.48-.71.79a18.56,18.56,0,0,1-1.66.94l-1.92.9c-.65.28-1.15.51-1.49.69h0q-1,.51-2.16,1c-.75.31-1.56.67-2.42,1.06s-1.81.84-2.86,1.36-2.24,1.13-3.57,1.85h0a3.55,3.55,0,0,1-1,.41,3.61,3.61,0,0,1-.83.1h0a2.4,2.4,0,0,1-1.35-.37,3.46,3.46,0,0,1-.95-.88,4.8,4.8,0,0,1-.62-1.06l-.4-.88h0Zm2.24-23.64-1.73,18.34a10.68,10.68,0,0,0,4.58-1.13,17.27,17.27,0,0,0,4.31-2.88,16,16,0,0,0,3.2-4,9.18,9.18,0,0,0,1.25-4.54h0q0-6.26-7.51-6.26h0a11.79,11.79,0,0,0-2.36.2c-.64.13-1.22.22-1.74.28Z"/></g><path class="cls-3" d="M0,289.28V271.44H24.81V86.13A26.37,26.37,0,0,1,51.36,59.6H154.51A112.31,112.31,0,0,0,151,87a58.9,58.9,0,0,0,.43,8.7h-91V271.44h92.27v1.74a9.85,9.85,0,0,0,10,10h50.49a9.85,9.85,0,0,0,10-10v-1.74h92.27V196.19h23.5c4.36,0,8.71-.44,13.06-.87V271h24.81v17.83A29.16,29.16,0,0,1,347.76,318H29.16A28.52,28.52,0,0,1,0,289.28ZM172.79,87c0-47.85,39.17-87,87-87h78.78c47.87,0,87.05,39.15,87.05,87s-39.18,87-87.05,87H279.86l-40,40a4.35,4.35,0,0,1-7.4-3V169.65C197.6,157.91,172.79,125.72,172.79,87Zm51.79.44a35.45,35.45,0,0,0,2.62,13.48,36,36,0,0,0,19.58,19.58,36.19,36.19,0,0,0,27,0,34.78,34.78,0,0,0,11.75-7.83l2.61-2.61L276.81,98.75l-2.61,2.61A19.05,19.05,0,0,1,260.27,107a20.93,20.93,0,0,1-13.92-5.65,19,19,0,0,1-5.66-13.92,20.9,20.9,0,0,1,5.66-13.92,19,19,0,0,1,13.92-5.66,21,21,0,0,1,13.93,5.66l13.93,13.92,25.24,25.23a34.82,34.82,0,0,0,11.76,7.83,36.17,36.17,0,0,0,27,0,36,36,0,0,0,19.59-19.58,36.14,36.14,0,0,0,0-27,36,36,0,0,0-19.59-19.57,36.17,36.17,0,0,0-27,0,34.82,34.82,0,0,0-11.76,7.83l-3,3,11.31,11.31,3.05-3a19.06,19.06,0,0,1,13.93-5.66,21,21,0,0,1,13.93,5.66,19,19,0,0,1,5.65,13.92,21,21,0,0,1-5.65,13.92A19.09,19.09,0,0,1,338.62,107a21,21,0,0,1-13.93-5.65L319,95.7,285.52,62.21a34.78,34.78,0,0,0-11.75-7.83,36.19,36.19,0,0,0-27,0A36,36,0,0,0,227.2,74,35.46,35.46,0,0,0,224.58,87.44Z"/></g></g></g></svg>