<svg xmlns="http://www.w3.org/2000/svg" version="1.1" xmlns:xlink="http://www.w3.org/1999/xlink" xmlns:svgjs="http://svgjs.dev/svgjs" width="2000" height="318" viewBox="0 0 2000 318"><g transform="matrix(1,0,0,1,-1.2121212121212466,-0.19749178280093815)"><svg viewBox="0 0 396 63" data-background-color="#111111" preserveAspectRatio="xMidYMid meet" height="318" width="2000" xmlns="http://www.w3.org/2000/svg" xmlns:xlink="http://www.w3.org/1999/xlink"><g id="tight-bounds" transform="matrix(1,0,0,1,0.2400000000000091,0.03912573055490043)"><svg viewBox="0 0 395.52 62.92174853889022" height="62.92174853889022" width="395.52"><g><svg viewBox="0 0 512.3831268862414 81.51305184442344" height="62.92174853889022" width="395.52"><g transform="matrix(1,0,0,1,116.86312688624135,11.265552027702519)"><svg viewBox="0 0 395.52 58.981947789018406" height="58.981947789018406" width="395.52"><g id="textblocktransform"><svg viewBox="0 0 395.52 58.981947789018406" height="58.981947789018406" width="395.52" id="textblock"><g><svg viewBox="0 0 395.52 33.08674167672446" height="33.08674167672446" width="395.52"><g transform="matrix(1,0,0,1,0,0)"><svg width="395.52" viewBox="3.74 -35.51044921875 428.12 36.00044921875" height="33.08674167672446" data-palette-color="#ffffff"><g class="undefined-text-0" data-fill-palette-color="primary" id="text-0"><path d="M10.08-35.01L10.08 0 3.74 0 3.74-35.01 10.08-35.01ZM51.14-10.3L51.14-10.3Q51.14-8.42 50.67-6.92 50.19-5.42 49.41-4.27 48.63-3.13 47.58-2.32 46.53-1.51 45.41-1 44.28-0.49 43.12-0.24 41.97 0 40.94 0L40.94 0 16.45 0 16.45-6.35 40.94-6.35Q42.77-6.35 43.78-7.42 44.8-8.5 44.8-10.3L44.8-10.3Q44.8-11.18 44.53-11.91 44.26-12.65 43.76-13.18 43.26-13.72 42.54-14.01 41.82-14.31 40.94-14.31L40.94-14.31 26.34-14.31Q24.8-14.31 23.02-14.86 21.24-15.41 19.71-16.63 18.19-17.85 17.17-19.82 16.16-21.8 16.16-24.66L16.16-24.66Q16.16-27.51 17.17-29.48 18.19-31.45 19.71-32.68 21.24-33.91 23.02-34.46 24.8-35.01 26.34-35.01L26.34-35.01 47.95-35.01 47.95-28.66 26.34-28.66Q24.53-28.66 23.52-27.56 22.51-26.46 22.51-24.66L22.51-24.66Q22.51-22.83 23.52-21.77 24.53-20.7 26.34-20.7L26.34-20.7 40.94-20.7 40.99-20.7Q42.01-20.68 43.16-20.42 44.31-20.17 45.44-19.63 46.58-19.09 47.6-18.27 48.63-17.46 49.42-16.31 50.22-15.16 50.68-13.67 51.14-12.18 51.14-10.3ZM97.16-32.3L97.16 0 90.77 0 90.77-20.85 79.51-1.05Q79.1-0.29 78.35 0.1 77.61 0.49 76.75 0.49L76.75 0.49Q75.92 0.49 75.2 0.1 74.48-0.29 74.07-1.05L74.07-1.05 62.76-20.85 62.76 0 56.42 0 56.42-32.3Q56.42-33.4 57.06-34.25 57.71-35.11 58.76-35.4L58.76-35.4Q59.27-35.52 59.79-35.49 60.3-35.45 60.77-35.27 61.25-35.08 61.64-34.75 62.03-34.42 62.3-33.96L62.3-33.96 76.75-8.84 91.21-33.96Q91.77-34.89 92.76-35.28 93.75-35.67 94.82-35.4L94.82-35.4Q95.84-35.11 96.5-34.25 97.16-33.4 97.16-32.3L97.16-32.3ZM110.93-35.01L110.93 0 104.58 0 104.58-35.01 110.93-35.01ZM150.5-6.35L150.5 0 121.55 0Q120.86 0 120.28-0.24 119.69-0.49 119.26-0.92 118.84-1.34 118.59-1.93 118.35-2.51 118.35-3.2L118.35-3.2 118.35-35.01 124.7-35.01 124.7-6.35 150.5-6.35ZM183.95-20.7L183.95-14.31 163.9-14.31 163.9-20.7 183.95-20.7ZM186.8-6.35L186.8 0 163.9 0Q162.59 0 161.02-0.46 159.46-0.93 158.13-1.99 156.8-3.05 155.91-4.75 155.02-6.45 155.02-8.91L155.02-8.91 155.02-31.81Q155.02-32.47 155.26-33.06 155.51-33.64 155.93-34.08 156.36-34.52 156.95-34.77 157.53-35.01 158.22-35.01L158.22-35.01 186.8-35.01 186.8-28.66 161.36-28.66 161.36-8.91Q161.36-7.67 162.02-7.01 162.68-6.35 163.95-6.35L163.95-6.35 186.8-6.35Z" fill="#ffffff" data-fill-palette-color="primary"></path><path d="M224.13-10.3L224.13-10.3Q224.13-8.42 223.65-6.92 223.18-5.42 222.4-4.27 221.61-3.13 220.56-2.32 219.51-1.51 218.39-1 217.27-0.49 216.11-0.24 214.95 0 213.92 0L213.92 0 189.44 0 189.44-6.35 213.92-6.35Q215.76-6.35 216.77-7.42 217.78-8.5 217.78-10.3L217.78-10.3Q217.78-11.18 217.51-11.91 217.24-12.65 216.74-13.18 216.24-13.72 215.52-14.01 214.8-14.31 213.92-14.31L213.92-14.31 199.32-14.31Q197.79-14.31 196-14.86 194.22-15.41 192.7-16.63 191.17-17.85 190.16-19.82 189.14-21.8 189.14-24.66L189.14-24.66Q189.14-27.51 190.16-29.48 191.17-31.45 192.7-32.68 194.22-33.91 196-34.46 197.79-35.01 199.32-35.01L199.32-35.01 220.93-35.01 220.93-28.66 199.32-28.66Q197.52-28.66 196.5-27.56 195.49-26.46 195.49-24.66L195.49-24.66Q195.49-22.83 196.5-21.77 197.52-20.7 199.32-20.7L199.32-20.7 213.92-20.7 213.97-20.7Q215-20.68 216.15-20.42 217.29-20.17 218.43-19.63 219.56-19.09 220.59-18.27 221.61-17.46 222.41-16.31 223.2-15.16 223.67-13.67 224.13-12.18 224.13-10.3ZM263.75-31.81L263.75 0 257.4 0 257.4-8.59 235.09-8.59 235.09 0 228.74 0 228.74-17.5Q228.74-21.34 230.06-24.56 231.38-27.78 233.72-30.1 236.07-32.42 239.26-33.72 242.46-35.01 246.25-35.01L246.25-35.01 260.55-35.01Q261.21-35.01 261.8-34.77 262.38-34.52 262.82-34.08 263.26-33.64 263.51-33.06 263.75-32.47 263.75-31.81L263.75-31.81ZM235.09-17.5L235.09-14.94 257.4-14.94 257.4-28.66 246.25-28.66Q245.95-28.66 245.01-28.58 244.07-28.49 242.84-28.15 241.61-27.81 240.24-27.1 238.87-26.39 237.73-25.15 236.58-23.9 235.83-22.03 235.09-20.17 235.09-17.5L235.09-17.5ZM306.11-27.29L306.11-23.24Q306.11-21.07 305.57-19.36 305.03-17.65 304.12-16.35 303.2-15.04 302-14.11 300.81-13.18 299.5-12.59 298.2-11.99 296.87-11.72 295.54-11.45 294.36-11.45L294.36-11.45 307.62 0 297.81 0 284.57-11.45 280.01-11.45 280.01-17.8 294.36-17.8Q295.56-17.9 296.55-18.3 297.54-18.7 298.26-19.38 298.98-20.07 299.37-21.03 299.76-22 299.76-23.24L299.76-23.24 299.76-27.25Q299.76-27.78 299.62-28.06 299.49-28.34 299.28-28.48 299.08-28.61 298.84-28.64 298.61-28.66 298.42-28.66L298.42-28.66 277.47-28.66 277.47 0 271.12 0 271.12-31.81Q271.12-32.47 271.37-33.06 271.61-33.64 272.04-34.08 272.46-34.52 273.05-34.77 273.64-35.01 274.32-35.01L274.32-35.01 298.42-35.01Q300.54-35.01 302-34.24 303.47-33.47 304.39-32.31 305.3-31.15 305.7-29.81 306.11-28.47 306.11-27.29L306.11-27.29ZM347.41-20.36L347.41-14.65Q347.41-11.45 346.3-8.76 345.19-6.08 343.24-4.14 341.28-2.2 338.6-1.1 335.91 0 332.76 0L332.76 0 315.63 0Q314.94 0 314.36-0.24 313.77-0.49 313.34-0.92 312.92-1.34 312.67-1.93 312.43-2.51 312.43-3.2L312.43-3.2 312.43-31.81Q312.43-32.47 312.67-33.06 312.92-33.64 313.34-34.08 313.77-34.52 314.36-34.77 314.94-35.01 315.63-35.01L315.63-35.01 332.76-35.01Q335.91-35.01 338.6-33.91 341.28-32.81 343.24-30.87 345.19-28.93 346.3-26.23 347.41-23.54 347.41-20.36L347.41-20.36ZM341.06-14.65L341.06-20.36Q341.06-22.22 340.47-23.75 339.87-25.29 338.77-26.38 337.67-27.47 336.15-28.06 334.62-28.66 332.76-28.66L332.76-28.66 318.77-28.66 318.77-6.35 332.76-6.35Q334.62-6.35 336.15-6.95 337.67-7.54 338.77-8.63 339.87-9.72 340.47-11.24 341.06-12.77 341.06-14.65L341.06-14.65ZM387.99-31.81L387.99 0 381.64 0 381.64-8.59 359.32-8.59 359.32 0 352.98 0 352.98-17.5Q352.98-21.34 354.29-24.56 355.61-27.78 357.96-30.1 360.3-32.42 363.5-33.72 366.7-35.01 370.48-35.01L370.48-35.01 384.79-35.01Q385.45-35.01 386.03-34.77 386.62-34.52 387.06-34.08 387.5-33.64 387.74-33.06 387.99-32.47 387.99-31.81L387.99-31.81ZM359.32-17.5L359.32-14.94 381.64-14.94 381.64-28.66 370.48-28.66Q370.19-28.66 369.25-28.58 368.31-28.49 367.08-28.15 365.84-27.81 364.48-27.1 363.11-26.39 361.96-25.15 360.81-23.9 360.07-22.03 359.32-20.17 359.32-17.5L359.32-17.5ZM430.34-27.29L430.34-23.24Q430.34-21.07 429.81-19.36 429.27-17.65 428.35-16.35 427.44-15.04 426.24-14.11 425.04-13.18 423.74-12.59 422.43-11.99 421.1-11.72 419.77-11.45 418.6-11.45L418.6-11.45 431.86 0 422.04 0 408.81-11.45 404.24-11.45 404.24-17.8 418.6-17.8Q419.8-17.9 420.78-18.3 421.77-18.7 422.49-19.38 423.21-20.07 423.6-21.03 423.99-22 423.99-23.24L423.99-23.24 423.99-27.25Q423.99-27.78 423.86-28.06 423.73-28.34 423.52-28.48 423.31-28.61 423.08-28.64 422.85-28.66 422.65-28.66L422.65-28.66 401.7-28.66 401.7 0 395.36 0 395.36-31.81Q395.36-32.47 395.6-33.06 395.85-33.64 396.27-34.08 396.7-34.52 397.29-34.77 397.87-35.01 398.56-35.01L398.56-35.01 422.65-35.01Q424.78-35.01 426.24-34.24 427.71-33.47 428.62-32.31 429.54-31.15 429.94-29.81 430.34-28.47 430.34-27.29L430.34-27.29Z" fill="#00b584" data-fill-palette-color="secondary"></path></g></svg></g></svg></g><g transform="matrix(1,0,0,1,0,40.89772730479886)"><svg viewBox="0 0 232.209792 18.084220484219543" height="18.084220484219543" width="232.209792"><g transform="matrix(1,0,0,1,0,0)"><svg width="232.209792" viewBox="3.8299999999999996 -38.23 512.8299999999999 39.94" height="18.084220484219543" data-palette-color="#00b584"><path d="M4.27-0.37L3.86-9.08Q3.86-9.11 3.85-9.13 3.83-9.16 3.83-9.18L3.83-9.18Q3.83-9.59 4.27-9.59L4.27-9.59Q4.49-9.59 4.76-9.38L4.76-9.38Q6.08-8.13 7.69-7.4 9.3-6.67 11.21-6.67L11.21-6.67Q11.72-6.67 12.38-6.77 13.04-6.88 13.62-7.14 14.21-7.4 14.61-7.81 15.01-8.23 15.01-8.86L15.01-8.86Q15.01-9.57 14.67-10.13 14.33-10.69 13.77-11.08L13.77-11.08Q13.55-11.23 13.11-11.57 12.67-11.91 12.11-12.35 11.55-12.79 10.94-13.29 10.33-13.79 9.78-14.25 9.23-14.7 8.79-15.06 8.35-15.43 8.13-15.63L8.13-15.63Q6.69-16.7 5.85-17.8 5-18.9 4.57-20.09 4.13-21.29 4-22.57 3.88-23.85 3.88-25.29L3.88-25.29Q3.88-27.44 4.91-29.37 5.93-31.3 7.8-32.73 9.67-34.16 12.28-35 14.89-35.84 18.09-35.84L18.09-35.84Q18.48-35.84 19.26-35.75 20.04-35.67 20.98-35.47 21.92-35.28 22.9-34.94 23.88-34.59 24.68-34.06L24.68-34.06Q24.95-33.86 25.11-33.67 25.27-33.47 25.32-33.06L25.32-33.06Q25.44-31.08 25.51-29.16 25.59-27.25 25.71-25.1L25.71-25.1Q25.71-24.68 25.54-24.55 25.37-24.41 25.1-24.41L25.1-24.41Q24.83-24.41 24.68-24.56L24.68-24.56Q23.97-25.27 23.22-25.95 22.46-26.64 21.63-27.16 20.8-27.69 19.86-28 18.92-28.32 17.82-28.32L17.82-28.32Q17.16-28.32 16.5-28.21 15.84-28.1 15.31-27.81 14.77-27.51 14.44-27 14.11-26.49 14.11-25.71L14.11-25.71Q14.11-24.88 14.32-24.27 14.53-23.66 15.36-23.12L15.36-23.12 21.22-19.14Q22.83-17.99 23.83-16.86 24.83-15.72 25.39-14.6 25.95-13.48 26.16-12.39 26.37-11.3 26.37-10.25L26.37-10.25Q26.37-8.54 25.81-7.03 25.24-5.52 24.27-4.24 23.29-2.95 21.98-1.94 20.68-0.93 19.19-0.21 17.7 0.51 16.1 0.89 14.5 1.27 12.96 1.27L12.96 1.27Q11.77 1.27 10.61 1.23 9.45 1.2 8.35 1.04 7.25 0.88 6.23 0.55 5.2 0.22 4.27-0.37L4.27-0.37ZM40.52-16.65L40.52-16.65Q40.52-14.89 40.9-13.12 41.28-11.35 42.16-9.94 43.04-8.52 44.48-7.64 45.92-6.76 48.04-6.76L48.04-6.76Q49.68-6.86 50.91-7.43 52.15-8.01 53.04-8.92 53.93-9.84 54.51-11.02 55.1-12.21 55.44-13.51 55.78-14.82 55.92-16.19 56.05-17.55 56.05-18.82L56.05-18.82Q56.05-20.56 55.59-22.18 55.12-23.8 54.2-25.05 53.27-26.29 51.89-27.05 50.51-27.81 48.68-27.81L48.68-27.81Q47.24-27.81 46.08-27.27 44.92-26.73 44.02-25.84 43.11-24.95 42.47-23.79 41.82-22.63 41.39-21.4 40.96-20.17 40.76-18.93 40.55-17.7 40.52-16.65ZM45.29 1.27L45.29 1.27Q41.62 1.27 38.74-0.1 35.86-1.46 33.87-3.8 31.88-6.13 30.82-9.19 29.76-12.26 29.76-15.67L29.76-15.67Q29.76-19.51 30.84-22.74 31.93-25.98 33.88-28.48 35.84-30.98 38.54-32.7 41.23-34.42 44.46-35.25L44.46-35.25Q44.75-35.25 44.91-35.72 45.07-36.18 45.19-36.74 45.31-37.3 45.48-37.77 45.65-38.23 45.97-38.23L45.97-38.23Q50.71-37.74 54.49-36.56 58.27-35.38 60.91-33.18 63.55-30.98 64.95-27.62 66.35-24.27 66.35-19.43L66.35-19.43Q66.35-16.33 65.6-13.6 64.84-10.86 63.47-8.56 62.11-6.25 60.19-4.43 58.27-2.61 55.93-1.34 53.59-0.07 50.89 0.6 48.19 1.27 45.29 1.27ZM93.99-20.07L93.99-20.07Q93.89-19.7 93.62-19.02 93.35-18.33 93.01-17.47 92.67-16.6 92.26-15.64 91.84-14.67 91.45-13.75L91.45-13.75Q91.28-13.33 91.05-13.13 90.82-12.94 90.11-12.92L90.11-12.92 82.98-12.79 82.1-1.95Q82.08-1.73 81.98-1.53 81.88-1.32 81.68-1.2L81.68-1.2Q81.61-1.15 81.11-0.92 80.61-0.68 79.85-0.37 79.1-0.05 78.19 0.32 77.29 0.68 76.41 0.99 75.53 1.29 74.8 1.5 74.07 1.71 73.65 1.71L73.65 1.71Q73.16 1.71 72.76 1.53 72.36 1.34 72.36 0.78L72.36 0.78Q72.33-0.44 72.42-1.92 72.5-3.39 72.63-4.92 72.75-6.45 72.9-7.92 73.04-9.4 73.14-10.62L73.14-10.62 73.31-12.67Q71.26-12.67 70.38-12.78 69.5-12.89 69.5-13.35L69.5-13.35Q69.5-13.67 69.87-14.18L69.87-14.18Q70.38-14.89 71.03-15.89 71.67-16.89 72.27-17.85 72.87-18.8 73.32-19.53 73.77-20.26 73.9-20.43L73.9-20.43 74.36-27.15Q73.9-27.15 73.55-27.14 73.21-27.12 72.93-27.11 72.65-27.1 72.41-27.09 72.16-27.08 71.89-27.08L71.89-27.08Q70.72-27.08 70.22-27.21 69.72-27.34 69.72-27.71L69.72-27.71Q69.72-27.88 70.01-28.42 70.31-28.96 70.73-29.65 71.16-30.35 71.66-31.12 72.16-31.88 72.55-32.54L72.55-32.54 74.02-35.03 85.13-35.42Q87.28-35.5 89.4-35.58 91.52-35.67 93.32-35.74 95.11-35.82 96.41-35.88 97.7-35.94 98.21-35.96L98.21-35.96Q98.24-35.96 98.35-35.95 98.46-35.94 98.58-35.88 98.7-35.82 98.81-35.67 98.92-35.52 98.92-35.25L98.92-35.25Q98.92-35.11 98.58-34.28 98.24-33.45 97.6-31.81L97.6-31.81 96.53-28.98Q96.36-28.56 96.14-28.34 95.92-28.13 95.21-28.1L95.21-28.1Q94.38-28.08 93.53-28.03 92.67-27.98 91.77-27.93L91.77-27.93 84.35-27.56Q84.2-26.61 84.14-26.15 84.08-25.68 84.06-25.38 84.05-25.07 84.05-24.77 84.05-24.46 84.03-23.8L84.03-23.8Q84-23.34 83.97-23.02 83.93-22.71 83.89-22.4 83.86-22.09 83.82-21.75 83.78-21.41 83.76-20.9L83.76-20.9Q85.37-20.95 86.92-21 88.47-21.04 89.78-21.09 91.08-21.14 92.04-21.18 92.99-21.22 93.38-21.22L93.38-21.22Q93.57-21.22 93.82-21.07 94.06-20.92 94.06-20.51L94.06-20.51Q94.06-20.31 93.99-20.07ZM104.41 0.88L104.41 0.78Q104.53-1 104.66-2.66 104.78-4.32 104.88-5.88L104.88-5.88 105.75-17.41Q105.9-18.73 106-19.81 106.1-20.9 106.16-21.94 106.22-22.97 106.28-24.04 106.34-25.1 106.41-26.39L106.41-26.39Q105.61-26.42 104.72-26.42 103.83-26.42 102.85-26.42L102.85-26.42 98.14-26.42Q97.87-26.42 97.81-26.62 97.75-26.83 97.75-27L97.75-27 97.75-27.17 100.43-34.23 100.41-34.33Q100.41-34.45 100.57-34.53 100.72-34.62 101.29-34.67L101.29-34.67Q104.66-34.86 107.82-35.05 110.98-35.23 114.07-35.38 117.16-35.52 120.24-35.67 123.33-35.82 126.6-35.94L126.6-35.94Q126.9-35.94 127.23-35.86 127.56-35.79 127.56-35.33L127.56-35.33Q127.56-35.28 127.53-35.23 127.51-35.18 127.51-35.13L127.51-35.13Q127.12-34.13 126.79-33.23 126.46-32.32 126.14-31.45 125.82-30.57 125.49-29.66 125.16-28.76 124.77-27.76L124.77-27.76Q124.75-27.73 124.68-27.53 124.6-27.32 124.46-27.06 124.31-26.81 124.06-26.59 123.82-26.37 123.45-26.34L123.45-26.34Q123.33-26.37 123.21-26.37 123.09-26.37 122.94-26.37L122.94-26.37 116.42-26.37Q116.3-25.12 116.19-23.73 116.08-22.34 115.93-21.02L115.93-21.02 114.15-1.95Q114.13-1.73 114.07-1.51 114.01-1.29 113.74-1.2L113.74-1.2 106.83 1.29Q106.56 1.39 106.12 1.54 105.68 1.68 105.27 1.68L105.27 1.68Q104.92 1.68 104.67 1.51 104.41 1.34 104.41 0.88L104.41 0.88ZM157.02-17.5L161.83-33.13Q161.95-33.57 162.1-33.85 162.25-34.13 162.76-34.25L162.76-34.25 169.96-35.91Q170.01-35.91 170.08-35.94 170.16-35.96 170.2-35.96L170.2-35.96Q170.55-35.96 170.68-35.67 170.82-35.38 170.82-35.11L170.82-35.11Q170.82-35.06 170.8-34.91 170.79-34.77 170.77-34.72L170.77-34.72 160.66-4Q160.27-3 160.01-2.38 159.76-1.76 159.5-1.35 159.24-0.95 158.91-0.68 158.58-0.42 158.03-0.15 157.49 0.12 156.66 0.48 155.82 0.83 154.56 1.44L154.56 1.44Q154.12 1.66 153.87 1.66L153.87 1.66Q153.48 1.66 153.29 1.37 153.09 1.07 152.97 0.71L152.97 0.71 148.79-14.16 143.57-3.39Q143.45-3.1 143.01-2.61 142.57-2.12 142.02-1.61 141.47-1.1 140.92-0.62 140.37-0.15 140.03 0.15L140.03 0.15Q139.71 0.42 139.36 0.68 139 0.95 138.64 1.17 138.27 1.39 137.94 1.53 137.61 1.66 137.32 1.66L137.32 1.66Q136.68 1.66 136.49 0.95L136.49 0.95 127.02-32.45Q126.97-32.64 126.91-32.84 126.85-33.03 126.85-33.2L126.85-33.2Q126.85-33.81 127.14-34.23 127.43-34.64 128.16-34.94 128.9-35.23 130.12-35.41 131.34-35.6 133.22-35.72L133.22-35.72Q134.1-35.84 134.69-35.89 135.29-35.94 135.71-35.94L135.71-35.94Q136.42-35.94 136.64-35.72 136.86-35.5 137.03-34.99L137.03-34.99 142.06-15.63 146.23-22.8 144.55-30.15Q144.4-30.74 144.42-31.03L144.42-31.03Q144.42-31.59 144.72-31.93 145.01-32.28 145.69-32.5 146.38-32.71 147.49-32.89 148.6-33.06 150.21-33.28L150.21-33.28Q150.92-33.37 151.43-33.42 151.94-33.47 152.31-33.47L152.31-33.47Q153.04-33.47 153.31-33.25 153.58-33.03 153.7-32.54L153.7-32.54 157.02-17.5ZM168.47-1.78L168.47-1.78Q168.79-2.42 169.13-3.21 169.47-4 169.76-4.93L169.76-4.93 170.42-6.54Q169.98-7.2 169.53-7.97 169.08-8.74 168.71-9.55 168.35-10.35 168.11-11.16 167.88-11.96 167.88-12.72L167.88-12.72Q167.88-12.77 168.26-12.81 168.64-12.84 169.21-12.87 169.79-12.89 170.46-12.9 171.13-12.92 171.7-12.93 172.28-12.94 172.66-12.95 173.03-12.96 173.03-12.96L173.03-12.96Q173.6-14.43 174.13-15.75 174.67-17.07 175.21-18.41 175.74-19.75 176.28-21.15 176.82-22.56 177.36-24.17L177.36-24.17Q178.38-27.2 179.36-29.49 180.33-31.79 181.19-33.76L181.19-33.76Q181.29-34.01 181.52-34.22 181.75-34.42 182.02-34.57 182.29-34.72 182.54-34.81 182.8-34.91 182.95-34.96L182.95-34.96Q183.04-34.99 183.69-35.18 184.34-35.38 185.17-35.6 186-35.82 186.82-35.99 187.63-36.16 188.12-36.16L188.12-36.16 188.56-36.16Q188.95-36.16 189.31-35.97 189.66-35.79 189.78-35.25L189.78-35.25Q190.95-32.25 192.28-28.7 193.62-25.15 194.88-20.87L194.88-20.87Q195.57-18.58 196.23-16.53 196.89-14.48 197.55-12.52 198.21-10.57 198.88-8.62 199.55-6.67 200.26-4.59L200.26-4.59Q200.48-3.71 200.71-3.2 200.94-2.69 201.13-2.39 201.33-2.1 201.45-1.97 201.57-1.83 201.57-1.68L201.57-1.68Q201.57-1.54 201.11-1.39L201.11-1.39 195.86 0.32Q195.28 0.54 194.67 0.76 194.05 0.98 193.52 1.15 192.98 1.32 192.58 1.43 192.18 1.54 192 1.54L192 1.54 191.86 1.54Q191.52 1.54 191.37 1.33 191.22 1.12 191.17 0.93L191.17 0.93Q190.93 0.12 190.69-0.52 190.44-1.17 190.21-1.82 189.98-2.47 189.75-3.2 189.51-3.93 189.29-4.93L189.29-4.93Q189.25-5.05 189.03-5.14 188.81-5.22 188.5-5.27 188.2-5.32 187.85-5.33 187.51-5.35 187.22-5.35L187.22-5.35Q186.29-5.35 185.72-5.33 185.14-5.32 184.7-5.31 184.26-5.3 183.86-5.29 183.46-5.27 182.87-5.27L182.87-5.27Q182.17-5.27 181.42-5.29 180.68-5.3 180.07-5.32L180.07-5.32 178.67-5.37Q178.04-3.61 177.4-2.08 176.77-0.54 176.04 1.1L176.04 1.1Q175.99 1.29 175.81 1.42 175.62 1.54 175.43 1.54L175.43 1.54Q175.28 1.54 175.26 1.51L175.26 1.51Q172.89 0.66 171.28-0.17 169.67-1 168.47-1.78ZM184.92-23.73L184.92-23.73Q184.34-21.56 183.76-19.79 183.19-18.02 182.71-16.65 182.24-15.28 181.9-14.34 181.55-13.4 181.41-12.89L181.41-12.89 181.41-12.67Q181.41-12.52 181.38-12.48L181.38-12.48 187.24-12.48Q186.97-13.67 186.67-14.89 186.36-16.11 186.07-17.46 185.78-18.8 185.49-20.34 185.19-21.88 184.92-23.73ZM216.42-15.48L215.22-1.95Q215.19-1.73 215.13-1.53 215.07-1.32 214.8-1.2L214.8-1.2Q214.71-1.15 213.84-0.84 212.97-0.54 211.84-0.13 210.7 0.27 209.59 0.67 208.48 1.07 207.9 1.29L207.9 1.29Q207.6 1.42 207.17 1.55 206.75 1.68 206.33 1.68L206.33 1.68Q205.99 1.68 205.73 1.51 205.48 1.34 205.48 0.88L205.48 0.88Q205.48-0.2 205.54-1.09 205.6-1.98 205.7-2.95 205.8-3.93 205.91-5.11 206.02-6.3 206.11-7.93L206.11-7.93Q206.24-10.08 206.38-12.07 206.53-14.06 206.67-16.21L206.67-16.21 207.02-20.39Q207.09-21.41 207.16-22.47 207.24-23.54 207.31-24.66L207.31-24.66 207.58-27.64Q207.58-27.69 207.43-27.69L207.43-27.69Q207.24-27.69 206.77-27.6 206.31-27.51 205.67-27.39 205.04-27.27 204.27-27.14 203.5-27 202.69-26.88L202.69-26.88Q202.5-26.88 202.32-26.97 202.13-27.05 202.13-27.17L202.13-27.17Q202.13-27.27 202.18-27.32L202.18-27.32 206.14-34.23Q207.48-34.52 209.03-34.83 210.58-35.13 212.36-35.38 214.15-35.62 216.15-35.78 218.15-35.94 220.4-35.94L220.4-35.94Q222.93-35.89 225.34-35.44 227.74-34.99 229.61-33.92 231.48-32.86 232.61-31.04 233.75-29.22 233.75-26.44L233.75-26.44Q233.75-24.9 233.22-23.61 232.7-22.31 231.88-21.28 231.06-20.24 230.09-19.45 229.11-18.65 228.22-18.09 227.33-17.53 226.65-17.2 225.96-16.87 225.72-16.77L225.72-16.77Q225.72-16.72 225.75-16.65 225.79-16.58 225.91-16.37 226.03-16.16 226.27-15.78 226.5-15.41 226.86-14.75L226.86-14.75Q227.26-14.16 227.79-13.18 228.33-12.21 229.07-10.88 229.82-9.55 230.8-7.91 231.77-6.27 233.04-4.39L233.04-4.39Q233.46-4.03 233.99-3.94 234.53-3.86 234.99-3.85 235.46-3.83 235.78-3.8 236.09-3.76 236.09-3.49L236.09-3.49Q236.09-3.3 235.69-3.04 235.29-2.78 234.75-2.51 234.21-2.25 233.66-2 233.11-1.76 232.82-1.61L232.82-1.61Q232.24-1.32 231.6-1.05 230.97-0.78 230.23-0.45 229.5-0.12 228.61 0.32 227.72 0.76 226.6 1.37L226.6 1.37Q226.3 1.54 226.05 1.6 225.79 1.66 225.57 1.66L225.57 1.66Q225.13 1.66 224.81 1.45 224.5 1.25 224.28 0.95 224.06 0.66 223.92 0.35 223.79 0.05 223.69-0.15L223.69-0.15 216.42-15.48ZM217.69-28.86L216.71-18.48Q217.95-18.48 219.3-19.12 220.64-19.75 221.74-20.75 222.84-21.75 223.54-23.02 224.25-24.29 224.25-25.59L224.25-25.59Q224.25-29.13 220-29.13L220-29.13Q219.2-29.13 218.66-29.02 218.12-28.91 217.69-28.86L217.69-28.86ZM260.09-20.26L260.09-20.26Q259.99-19.92 259.72-19.3 259.46-18.68 259.1-17.9 258.75-17.11 258.34-16.22 257.94-15.33 257.55-14.43L257.55-14.43Q257.4-14.09 257.28-13.93 257.16-13.77 256.89-13.7 256.62-13.62 256.15-13.61 255.67-13.6 254.82-13.57L254.82-13.57 251.42-13.5 250.74-6.03 263.26-6.03 263.26-5.08Q263.21-5.03 262.85-4.43 262.48-3.83 261.99-3 261.51-2.17 260.97-1.33 260.43-0.49 260.07 0.02L260.07 0.02Q259.82 0.46 259.5 0.72 259.19 0.98 258.81 1.1 258.43 1.22 257.98 1.25 257.53 1.27 256.99 1.27L256.99 1.27Q254.79 1.27 252.41 1.17 250.03 1.07 247.66 0.93 245.3 0.78 243.04 0.6 240.78 0.42 238.85 0.22L238.85 0.22Q238.68 0.2 238.54 0.02 238.41-0.15 238.41-0.37L238.41-0.37Q238.31-0.37 238.54-0.78 238.78-1.2 239.19-1.86 239.61-2.51 240.11-3.36 240.61-4.2 241.07-5.05L241.07-5.05 241.46-10.55Q241.56-11.94 241.62-12.62 241.68-13.31 241.68-13.35L241.68-13.35Q240.22-13.38 239.5-13.5 238.78-13.62 238.78-14.04L238.78-14.04Q238.78-14.23 239.13-14.77 239.48-15.31 240-16 240.51-16.7 241.08-17.46 241.66-18.21 242.1-18.85L242.1-18.85 242.71-27.15 242.63-27.15Q242.1-27.12 241.66-27.11 241.22-27.1 240.85-27.1L240.85-27.1Q239.68-27.1 239.18-27.23 238.68-27.37 238.68-27.73L238.68-27.73Q238.68-27.91 238.97-28.44 239.26-28.98 239.7-29.68 240.14-30.37 240.63-31.14 241.12-31.91 241.51-32.57L241.51-32.57 242.98-35.06 253.18-35.06 265.22-35.94Q265.24-35.94 265.35-35.93 265.46-35.91 265.58-35.85 265.71-35.79 265.82-35.64 265.92-35.5 265.92-35.23L265.92-35.23 265.56-33.96Q265.39-33.42 265.14-32.82 264.9-32.23 264.61-31.59L264.61-31.59 263.53-28.76Q263.36-28.34 263.14-28.13 262.92-27.91 262.21-27.88L262.21-27.88Q260.36-27.83 258.08-27.72 255.79-27.61 252.84-27.51L252.84-27.51Q252.74-27.17 252.74-26.97 252.74-26.76 252.69-26.17L252.69-26.17 252.57-25.05Q252.52-24.27 252.42-23.36 252.33-22.46 252.18-21.14L252.18-21.14Q253.42-21.19 254.61-21.24 255.79-21.29 256.77-21.33 257.75-21.36 258.47-21.39 259.19-21.41 259.48-21.41L259.48-21.41Q259.67-21.41 259.92-21.26 260.16-21.12 260.16-20.7L260.16-20.7Q260.16-20.51 260.09-20.26ZM299.59-20.26L299.59-20.26Q299.49-19.92 299.22-19.3 298.95-18.68 298.6-17.9 298.24-17.11 297.84-16.22 297.44-15.33 297.05-14.43L297.05-14.43Q296.9-14.09 296.78-13.93 296.66-13.77 296.39-13.7 296.12-13.62 295.64-13.61 295.17-13.6 294.31-13.57L294.31-13.57 290.92-13.5 290.24-6.03 302.76-6.03 302.76-5.08Q302.71-5.03 302.35-4.43 301.98-3.83 301.49-3 301-2.17 300.47-1.33 299.93-0.49 299.56 0.02L299.56 0.02Q299.32 0.46 299 0.72 298.68 0.98 298.31 1.1 297.93 1.22 297.48 1.25 297.02 1.27 296.49 1.27L296.49 1.27Q294.29 1.27 291.91 1.17 289.53 1.07 287.16 0.93 284.79 0.78 282.53 0.6 280.28 0.42 278.35 0.22L278.35 0.22Q278.18 0.2 278.04 0.02 277.91-0.15 277.91-0.37L277.91-0.37Q277.81-0.37 278.04-0.78 278.27-1.2 278.69-1.86 279.1-2.51 279.6-3.36 280.1-4.2 280.57-5.05L280.57-5.05 280.96-10.55Q281.06-11.94 281.12-12.62 281.18-13.31 281.18-13.35L281.18-13.35Q279.71-13.38 278.99-13.5 278.27-13.62 278.27-14.04L278.27-14.04Q278.27-14.23 278.63-14.77 278.98-15.31 279.49-16 280.01-16.7 280.58-17.46 281.15-18.21 281.59-18.85L281.59-18.85 282.2-27.15 282.13-27.15Q281.59-27.12 281.15-27.11 280.71-27.1 280.35-27.1L280.35-27.1Q279.18-27.1 278.68-27.23 278.18-27.37 278.18-27.73L278.18-27.73Q278.18-27.91 278.47-28.44 278.76-28.98 279.2-29.68 279.64-30.37 280.13-31.14 280.62-31.91 281.01-32.57L281.01-32.57 282.47-35.06 292.68-35.06 304.71-35.94Q304.74-35.94 304.85-35.93 304.96-35.91 305.08-35.85 305.2-35.79 305.31-35.64 305.42-35.5 305.42-35.23L305.42-35.23 305.06-33.96Q304.88-33.42 304.64-32.82 304.4-32.23 304.1-31.59L304.1-31.59 303.03-28.76Q302.86-28.34 302.64-28.13 302.42-27.91 301.71-27.88L301.71-27.88Q299.86-27.83 297.57-27.72 295.29-27.61 292.34-27.51L292.34-27.51Q292.24-27.17 292.24-26.97 292.24-26.76 292.19-26.17L292.19-26.17 292.07-25.05Q292.02-24.27 291.92-23.36 291.82-22.46 291.68-21.14L291.68-21.14Q292.92-21.19 294.11-21.24 295.29-21.29 296.27-21.33 297.24-21.36 297.96-21.39 298.68-21.41 298.98-21.41L298.98-21.41Q299.17-21.41 299.42-21.26 299.66-21.12 299.66-20.7L299.66-20.7Q299.66-20.51 299.59-20.26ZM327.56-14.43L327.56-32.71Q327.76-33.52 327.9-33.89 328.05-34.25 328.54-34.38L328.54-34.38 334.86-35.86Q335.16-35.96 335.5-35.96L335.5-35.96Q335.81-35.96 335.96-35.74 336.11-35.52 336.11-34.91L336.11-34.91Q335.96-34.33 335.86-33.12 335.77-31.91 335.72-30.47 335.67-29.03 335.64-27.58 335.62-26.12 335.62-25.05L335.62-25.05 335.62-23.71Q335.62-22.19 335.6-20.41 335.57-18.63 335.53-16.8 335.5-14.97 335.45-13.18 335.4-11.4 335.35-9.84L335.35-9.84 335.2-5.66Q335.18-5.54 335.18-5.44 335.18-5.35 335.18-5.25L335.18-5.25 335.18-4.88Q335.18-4.47 335.19-4.19 335.2-3.91 335.2-3.69L335.2-3.69Q335.2-3.44 335.17-3.25 335.13-3.05 334.98-2.87 334.84-2.69 334.58-2.49 334.33-2.29 333.89-2L333.89-2Q333.64-1.83 333.08-1.5 332.52-1.17 331.84-0.76 331.15-0.34 330.42 0.1 329.69 0.54 329.08 0.89 328.47 1.25 328.09 1.46 327.71 1.68 327.71 1.68L327.71 1.68 316.38-15.75 315.36-1.46Q315.33-1.27 315.27-1.05 315.21-0.83 314.94-0.71L314.94-0.71Q314.72-0.61 314.18-0.4 313.65-0.2 312.93 0.07 312.21 0.34 311.41 0.62 310.62 0.9 309.91 1.14 309.2 1.37 308.65 1.51 308.1 1.66 307.91 1.66L307.91 1.66Q307.54 1.66 307.3 1.46 307.06 1.27 307.06 0.76L307.06 0.76Q307.3-2.29 307.62-5.9 307.93-9.5 308.23-13.28 308.52-17.07 308.78-20.84 309.03-24.61 309.2-28L309.2-28Q309.2-28.1 308.9-28.65 308.59-29.2 308.21-29.85 307.84-30.49 307.53-31.07 307.23-31.64 307.23-31.79L307.23-31.79Q307.23-31.96 307.41-32.1 307.59-32.25 308.01-32.5L308.01-32.5 314.53-36.18Q314.6-36.18 314.73-36.21 314.87-36.23 314.97-36.23L314.97-36.23Q315.23-36.23 315.39-36.17 315.55-36.11 315.72-35.79L315.72-35.79 327.56-14.43ZM340.08-15.77L340.08-15.77Q340.08-18.58 340.73-21.15 341.38-23.73 342.58-25.96 343.77-28.2 345.47-30.02 347.16-31.84 349.26-33.14 351.36-34.45 353.82-35.16 356.27-35.86 358.98-35.86L358.98-35.86Q361.13-35.86 362.75-35.58 364.38-35.3 365.59-34.88 366.79-34.45 367.61-33.94 368.43-33.42 368.97-32.96L368.97-32.96Q368.94-32.96 368.94-32.79L368.94-32.79Q368.94-32.42 369-31.45 369.06-30.47 369.15-29.27 369.24-28.08 369.3-26.84 369.36-25.61 369.36-24.71L369.36-24.71Q369.36-24.56 369.26-24.38 369.16-24.19 368.77-24.19L368.77-24.19Q368.55-24.19 368.23-24.27L368.23-24.27Q367.72-24.41 366.94-24.94 366.16-25.46 365.12-26.04 364.08-26.61 362.8-27.06 361.52-27.51 360.01-27.51L360.01-27.51Q358-27.51 356.37-26.67 354.73-25.83 353.59-24.33 352.44-22.83 351.8-20.76 351.17-18.7 351.17-16.28L351.17-16.28Q351.17-14.16 351.56-12.3 351.95-10.45 352.74-9.09 353.54-7.74 354.71-6.96 355.88-6.18 357.47-6.18L357.47-6.18Q359.01-6.18 360.96-6.84L360.96-6.84 361.52-10.28 356.86-10.28Q357.39-13.23 357.79-14.92 358.18-16.6 358.52-17.46 358.86-18.31 359.23-18.53 359.59-18.75 360.08-18.75L360.08-18.75 372.92-18.75Q373.48-18.75 373.74-18.68 374-18.6 374-18.16L374-18.16Q374-17.94 373.95-17.64 373.9-17.33 373.83-16.89L373.83-16.89 372.6-12.79Q372.38-12.01 372.24-11.58 372.09-11.16 371.87-10.95 371.65-10.74 371.27-10.71 370.9-10.67 370.19-10.67L370.19-10.67Q369.8-10.67 369.72-10.35 369.65-10.03 369.6-9.69L369.6-9.69Q369.45-8.62 369.31-7.56 369.16-6.49 369.03-5.58 368.89-4.66 368.75-3.97 368.6-3.27 368.45-2.95L368.45-2.95Q366.79-1.9 365.44-1.11 364.08-0.32 362.74 0.21 361.4 0.73 359.91 1 358.42 1.27 356.49 1.27L356.49 1.27Q353.05 1.27 350.05 0.02 347.04-1.22 344.83-3.48 342.62-5.74 341.35-8.86 340.08-11.99 340.08-15.77ZM376.14 0.78L376.14 0.78 377.36-15.92Q377.97-24.32 378.27-28.25 378.56-32.18 378.56-32.15L378.56-32.15Q378.58-32.59 378.61-32.89 378.63-33.18 378.71-33.37 378.78-33.57 378.9-33.67 379.02-33.76 379.27-33.81L379.27-33.81 387.71-35.84Q388.03-35.94 388.37-35.94L388.37-35.94Q388.72-35.94 388.84-35.73 388.96-35.52 388.96-34.89L388.96-34.89Q388.79-33.37 388.69-32.06 388.59-30.74 388.53-29.54 388.47-28.34 388.42-27.23 388.37-26.12 388.3-25.02L388.3-25.02Q388.15-23.83 388.04-22.63 387.93-21.44 387.84-20.15 387.74-18.87 387.63-17.44 387.52-16.02 387.37-14.33L387.37-14.33 386.3-1.46Q386.27-1.25 386.21-1.04 386.15-0.83 385.88-0.71L385.88-0.71Q385.86-0.71 385.59-0.61 385.32-0.51 384.88-0.35 384.44-0.2 383.86-0.02 383.27 0.15 382.61 0.29L382.61 0.29Q381.51 0.54 380.7 0.78 379.88 1.03 379.24 1.23 378.61 1.44 378.07 1.56 377.53 1.68 377 1.68L377 1.68Q376.63 1.68 376.39 1.49 376.14 1.29 376.14 0.78ZM413.25-14.43L413.25-32.71Q413.44-33.52 413.59-33.89 413.74-34.25 414.23-34.38L414.23-34.38 420.55-35.86Q420.84-35.96 421.18-35.96L421.18-35.96Q421.5-35.96 421.65-35.74 421.79-35.52 421.79-34.91L421.79-34.91Q421.65-34.33 421.55-33.12 421.45-31.91 421.4-30.47 421.35-29.03 421.33-27.58 421.31-26.12 421.31-25.05L421.31-25.05 421.31-23.71Q421.31-22.19 421.28-20.41 421.26-18.63 421.22-16.8 421.18-14.97 421.13-13.18 421.09-11.4 421.04-9.84L421.04-9.84 420.89-5.66Q420.87-5.54 420.87-5.44 420.87-5.35 420.87-5.25L420.87-5.25 420.87-4.88Q420.87-4.47 420.88-4.19 420.89-3.91 420.89-3.69L420.89-3.69Q420.89-3.44 420.85-3.25 420.82-3.05 420.67-2.87 420.52-2.69 420.27-2.49 420.01-2.29 419.57-2L419.57-2Q419.33-1.83 418.77-1.5 418.2-1.17 417.52-0.76 416.84-0.34 416.11 0.1 415.37 0.54 414.76 0.89 414.15 1.25 413.77 1.46 413.4 1.68 413.4 1.68L413.4 1.68 402.07-15.75 401.04-1.46Q401.02-1.27 400.96-1.05 400.9-0.83 400.63-0.71L400.63-0.71Q400.41-0.61 399.87-0.4 399.33-0.2 398.61 0.07 397.89 0.34 397.1 0.62 396.31 0.9 395.6 1.14 394.89 1.37 394.34 1.51 393.79 1.66 393.6 1.66L393.6 1.66Q393.23 1.66 392.99 1.46 392.74 1.27 392.74 0.76L392.74 0.76Q392.99-2.29 393.3-5.9 393.62-9.5 393.91-13.28 394.21-17.07 394.46-20.84 394.72-24.61 394.89-28L394.89-28Q394.89-28.1 394.58-28.65 394.28-29.2 393.9-29.85 393.52-30.49 393.22-31.07 392.91-31.64 392.91-31.79L392.91-31.79Q392.91-31.96 393.09-32.1 393.28-32.25 393.69-32.5L393.69-32.5 400.21-36.18Q400.28-36.18 400.42-36.21 400.55-36.23 400.65-36.23L400.65-36.23Q400.92-36.23 401.08-36.17 401.24-36.11 401.41-35.79L401.41-35.79 413.25-14.43ZM447.69-20.26L447.69-20.26Q447.6-19.92 447.33-19.3 447.06-18.68 446.71-17.9 446.35-17.11 445.95-16.22 445.55-15.33 445.16-14.43L445.16-14.43Q445.01-14.09 444.89-13.93 444.76-13.77 444.5-13.7 444.23-13.62 443.75-13.61 443.28-13.6 442.42-13.57L442.42-13.57 439.03-13.5 438.34-6.03 450.87-6.03 450.87-5.08Q450.82-5.03 450.45-4.43 450.09-3.83 449.6-3 449.11-2.17 448.57-1.33 448.04-0.49 447.67 0.02L447.67 0.02Q447.43 0.46 447.11 0.72 446.79 0.98 446.41 1.1 446.03 1.22 445.58 1.25 445.13 1.27 444.59 1.27L444.59 1.27Q442.4 1.27 440.02 1.17 437.64 1.07 435.27 0.93 432.9 0.78 430.64 0.6 428.38 0.42 426.45 0.22L426.45 0.22Q426.28 0.2 426.15 0.02 426.01-0.15 426.01-0.37L426.01-0.37Q425.92-0.37 426.15-0.78 426.38-1.2 426.8-1.86 427.21-2.51 427.71-3.36 428.21-4.2 428.68-5.05L428.68-5.05 429.07-10.55Q429.16-11.94 429.23-12.62 429.29-13.31 429.29-13.35L429.29-13.35Q427.82-13.38 427.1-13.5 426.38-13.62 426.38-14.04L426.38-14.04Q426.38-14.23 426.74-14.77 427.09-15.31 427.6-16 428.11-16.7 428.69-17.46 429.26-18.21 429.7-18.85L429.7-18.85 430.31-27.15 430.24-27.15Q429.7-27.12 429.26-27.11 428.82-27.1 428.46-27.1L428.46-27.1Q427.28-27.1 426.78-27.23 426.28-27.37 426.28-27.73L426.28-27.73Q426.28-27.91 426.58-28.44 426.87-28.98 427.31-29.68 427.75-30.37 428.24-31.14 428.72-31.91 429.12-32.57L429.12-32.57 430.58-35.06 440.79-35.06 452.82-35.94Q452.85-35.94 452.96-35.93 453.07-35.91 453.19-35.85 453.31-35.79 453.42-35.64 453.53-35.5 453.53-35.23L453.53-35.23 453.16-33.96Q452.99-33.42 452.75-32.82 452.5-32.23 452.21-31.59L452.21-31.59 451.14-28.76Q450.97-28.34 450.75-28.13 450.53-27.91 449.82-27.88L449.82-27.88Q447.96-27.83 445.68-27.72 443.4-27.61 440.44-27.51L440.44-27.51Q440.35-27.17 440.35-26.97 440.35-26.76 440.3-26.17L440.3-26.17 440.17-25.05Q440.13-24.27 440.03-23.36 439.93-22.46 439.78-21.14L439.78-21.14Q441.03-21.19 442.21-21.24 443.4-21.29 444.37-21.33 445.35-21.36 446.07-21.39 446.79-21.41 447.08-21.41L447.08-21.41Q447.28-21.41 447.52-21.26 447.77-21.12 447.77-20.7L447.77-20.7Q447.77-20.51 447.69-20.26ZM475.94-20.26L475.94-20.26Q475.84-19.92 475.57-19.3 475.3-18.68 474.95-17.9 474.6-17.11 474.19-16.22 473.79-15.33 473.4-14.43L473.4-14.43Q473.25-14.09 473.13-13.93 473.01-13.77 472.74-13.7 472.47-13.62 472-13.61 471.52-13.6 470.67-13.57L470.67-13.57 467.27-13.5 466.59-6.03 479.11-6.03 479.11-5.08Q479.06-5.03 478.7-4.43 478.33-3.83 477.84-3 477.36-2.17 476.82-1.33 476.28-0.49 475.91 0.02L475.91 0.02Q475.67 0.46 475.35 0.72 475.04 0.98 474.66 1.1 474.28 1.22 473.83 1.25 473.38 1.27 472.84 1.27L472.84 1.27Q470.64 1.27 468.26 1.17 465.88 1.07 463.51 0.93 461.14 0.78 458.89 0.6 456.63 0.42 454.7 0.22L454.7 0.22Q454.53 0.2 454.39 0.02 454.26-0.15 454.26-0.37L454.26-0.37Q454.16-0.37 454.39-0.78 454.63-1.2 455.04-1.86 455.46-2.51 455.96-3.36 456.46-4.2 456.92-5.05L456.92-5.05 457.31-10.55Q457.41-11.94 457.47-12.62 457.53-13.31 457.53-13.35L457.53-13.35Q456.07-13.38 455.35-13.5 454.63-13.62 454.63-14.04L454.63-14.04Q454.63-14.23 454.98-14.77 455.33-15.31 455.85-16 456.36-16.7 456.93-17.46 457.51-18.21 457.95-18.85L457.95-18.85 458.56-27.15 458.48-27.15Q457.95-27.12 457.51-27.11 457.07-27.1 456.7-27.1L456.7-27.1Q455.53-27.1 455.03-27.23 454.53-27.37 454.53-27.73L454.53-27.73Q454.53-27.91 454.82-28.44 455.11-28.98 455.55-29.68 455.99-30.37 456.48-31.14 456.97-31.91 457.36-32.57L457.36-32.57 458.82-35.06 469.03-35.06 481.07-35.94Q481.09-35.94 481.2-35.93 481.31-35.91 481.43-35.85 481.55-35.79 481.66-35.64 481.77-35.5 481.77-35.23L481.77-35.23 481.41-33.96Q481.24-33.42 480.99-32.82 480.75-32.23 480.46-31.59L480.46-31.59 479.38-28.76Q479.21-28.34 478.99-28.13 478.77-27.91 478.06-27.88L478.06-27.88Q476.21-27.83 473.92-27.72 471.64-27.61 468.69-27.51L468.69-27.51Q468.59-27.17 468.59-26.97 468.59-26.76 468.54-26.17L468.54-26.17 468.42-25.05Q468.37-24.27 468.27-23.36 468.18-22.46 468.03-21.14L468.03-21.14Q469.27-21.19 470.46-21.24 471.64-21.29 472.62-21.33 473.6-21.36 474.32-21.39 475.04-21.41 475.33-21.41L475.33-21.41Q475.52-21.41 475.77-21.26 476.01-21.12 476.01-20.7L476.01-20.7Q476.01-20.51 475.94-20.26ZM496.98-15.48L495.79-1.95Q495.76-1.73 495.7-1.53 495.64-1.32 495.37-1.2L495.37-1.2Q495.27-1.15 494.41-0.84 493.54-0.54 492.4-0.13 491.27 0.27 490.16 0.67 489.05 1.07 488.46 1.29L488.46 1.29Q488.17 1.42 487.74 1.55 487.31 1.68 486.9 1.68L486.9 1.68Q486.56 1.68 486.3 1.51 486.04 1.34 486.04 0.88L486.04 0.88Q486.04-0.2 486.11-1.09 486.17-1.98 486.26-2.95 486.36-3.93 486.47-5.11 486.58-6.3 486.68-7.93L486.68-7.93Q486.8-10.08 486.95-12.07 487.09-14.06 487.24-16.21L487.24-16.21 487.58-20.39Q487.66-21.41 487.73-22.47 487.8-23.54 487.88-24.66L487.88-24.66 488.14-27.64Q488.14-27.69 488-27.69L488-27.69Q487.8-27.69 487.34-27.6 486.87-27.51 486.24-27.39 485.6-27.27 484.84-27.14 484.07-27 483.26-26.88L483.26-26.88Q483.07-26.88 482.88-26.97 482.7-27.05 482.7-27.17L482.7-27.17Q482.7-27.27 482.75-27.32L482.75-27.32 486.7-34.23Q488.05-34.52 489.6-34.83 491.15-35.13 492.93-35.38 494.71-35.62 496.71-35.78 498.71-35.94 500.96-35.94L500.96-35.94Q503.5-35.89 505.9-35.44 508.31-34.99 510.18-33.92 512.04-32.86 513.18-31.04 514.32-29.22 514.32-26.44L514.32-26.44Q514.32-24.9 513.79-23.61 513.27-22.31 512.45-21.28 511.63-20.24 510.65-19.45 509.68-18.65 508.79-18.09 507.89-17.53 507.21-17.2 506.53-16.87 506.28-16.77L506.28-16.77Q506.28-16.72 506.32-16.65 506.36-16.58 506.48-16.37 506.6-16.16 506.83-15.78 507.06-15.41 507.43-14.75L507.43-14.75Q507.82-14.16 508.36-13.18 508.9-12.21 509.64-10.88 510.38-9.55 511.36-7.91 512.34-6.27 513.61-4.39L513.61-4.39Q514.02-4.03 514.56-3.94 515.1-3.86 515.56-3.85 516.02-3.83 516.34-3.8 516.66-3.76 516.66-3.49L516.66-3.49Q516.66-3.3 516.26-3.04 515.85-2.78 515.32-2.51 514.78-2.25 514.23-2 513.68-1.76 513.39-1.61L513.39-1.61Q512.8-1.32 512.17-1.05 511.53-0.78 510.8-0.45 510.07-0.12 509.18 0.32 508.29 0.76 507.16 1.37L507.16 1.37Q506.87 1.54 506.61 1.6 506.36 1.66 506.14 1.66L506.14 1.66Q505.7 1.66 505.38 1.45 505.06 1.25 504.84 0.95 504.62 0.66 504.49 0.35 504.35 0.05 504.26-0.15L504.26-0.15 496.98-15.48ZM498.25-28.86L497.27-18.48Q498.52-18.48 499.86-19.12 501.21-19.75 502.3-20.75 503.4-21.75 504.11-23.02 504.82-24.29 504.82-25.59L504.82-25.59Q504.82-29.13 500.57-29.13L500.57-29.13Q499.76-29.13 499.23-29.02 498.69-28.91 498.25-28.86L498.25-28.86Z" opacity="1" transform="matrix(1,0,0,1,0,0)" fill="#00b584" class="undefined-text-1" data-fill-palette-color="secondary" id="text-1"></path></svg></g></svg></g></svg></g></svg></g><g><svg viewBox="0 0 109.05214125816694 81.51305184442344" height="81.51305184442344" width="109.05214125816694"><g><svg xmlns="http://www.w3.org/2000/svg" xmlns:xlink="http://www.w3.org/1999/xlink" version="1.1" x="0" y="0" viewBox="1.1 13.399999999999999 97.80000000000001 73.10242952049867" enable-background="new 0 0 100 100" xml:space="preserve" height="81.51305184442344" width="109.05214125816694" class="icon-icon-0" data-fill-palette-color="accent" id="icon-0"><path d="M1.1 79.9v-4.1h5.4 0.3V33.2c0-3.4 2.7-6.1 6.1-6.1h23.7c-0.5 2-0.8 4.1-0.8 6.3 0 0.7 0 1.3 0.1 2H15v40.4h21.2v0.4c0 1.3 1 2.3 2.3 2.3h11.6c1.3 0 2.3-1 2.3-2.3v-0.4h21.2V58.5H79c1 0 2-0.1 3-0.2v17.4h0.3 5.4v4.1c0 3.7-3 6.7-6.7 6.7h-6.4H14.2 7.8C4.1 86.6 1.1 83.6 1.1 79.9zM40.8 33.4c0-11 9-20 20-20h18.1c11 0 20 9 20 20 0 11-9 20-20 20H65.4l-9.2 9.2c-0.6 0.6-1.7 0.2-1.7-0.7v-9.5C46.5 49.7 40.8 42.3 40.8 33.4zM52.7 33.5c0 1.1 0.2 2.1 0.6 3.1 0.4 1 1 1.9 1.8 2.7 0.8 0.8 1.7 1.4 2.7 1.8 1 0.4 2 0.6 3.1 0.6 1.1 0 2.1-0.2 3.1-0.6 1-0.4 1.9-1 2.7-1.8l0.6-0.6-2.6-2.6-0.6 0.6c-0.9 0.9-2 1.3-3.2 1.3-1.2 0-2.3-0.5-3.2-1.3-0.9-0.9-1.3-2-1.3-3.2s0.5-2.3 1.3-3.2c0.9-0.9 2-1.3 3.2-1.3 1.2 0 2.3 0.5 3.2 1.3l3.2 3.2 5.8 5.8c0.8 0.8 1.7 1.4 2.7 1.8 1 0.4 2 0.6 3.1 0.6 1.1 0 2.1-0.2 3.1-0.6 1-0.4 1.9-1 2.7-1.8 0.8-0.8 1.4-1.7 1.8-2.7 0.4-1 0.6-2 0.6-3.1 0-1.1-0.2-2.1-0.6-3.1-0.4-1-1-1.9-1.8-2.7-0.8-0.8-1.7-1.4-2.7-1.8-1-0.4-2-0.6-3.1-0.6-1.1 0-2.1 0.2-3.1 0.6-1 0.4-1.9 1-2.7 1.8l-0.7 0.7L75 31l0.7-0.7c0.9-0.9 2-1.3 3.2-1.3 1.2 0 2.3 0.5 3.2 1.3 0.9 0.9 1.3 2 1.3 3.2s-0.5 2.3-1.3 3.2c-0.9 0.9-2 1.3-3.2 1.3-1.2 0-2.3-0.5-3.2-1.3l-1.3-1.3-7.7-7.7c-0.8-0.8-1.7-1.4-2.7-1.8-1-0.4-2-0.6-3.1-0.6-1.1 0-2.1 0.2-3.1 0.6-1 0.4-1.9 1-2.7 1.8-0.8 0.8-1.4 1.7-1.8 2.7C52.9 31.4 52.7 32.4 52.7 33.5z" fill="#dcdcdc" data-fill-palette-color="accent"></path></svg></g></svg></g></svg></g><defs></defs></svg><rect width="395.52" height="62.92174853889022" fill="none" stroke="none" visibility="hidden"></rect></g></svg></g></svg>